<svg width="1590" height="629" viewBox="0 0 1590 629" fill="none" xmlns="http://www.w3.org/2000/svg">
<g opacity="0.3">
<path d="M1445.61 115.675C1435.64 110.409 1428.43 111.44 1428.43 111.44C1428.43 111.44 1437.1 120.143 1424.26 110.717C1411.57 101.411 1386.99 94.1245 1386.99 94.1245C1386.99 94.1245 1373.32 94.6296 1370.66 92.6171C1367.99 90.6087 1354.43 90.1077 1360.14 94.3257C1365.88 98.5684 1365.69 100.495 1360.21 100.088C1354.74 99.6814 1353.74 95.6359 1353.74 95.6359C1353.74 95.6359 1359.92 92.2146 1353.57 91.2084C1347.22 90.2062 1348.86 94.223 1348.86 94.223C1336.96 90.9045 1330.03 93.8205 1330.03 93.8205C1330.03 93.8205 1321.06 98.363 1318.9 91.1057C1316.76 83.9182 1306.18 85.0107 1306.18 85.0107C1306.18 85.0107 1285.6 87.1013 1285.28 84.0168C1284.97 80.9447 1273.24 79.7577 1273.24 79.7577C1277.08 75.0304 1271.53 75.0304 1271.53 75.0304C1271.53 75.0304 1265.33 75.0304 1260.12 73.6586C1254.91 72.2868 1242.72 71.4079 1237.86 71.8473C1233 72.2868 1232.22 73.2396 1233.46 76.9237C1234.7 80.6243 1232.76 81.0679 1227.8 80.92C1222.84 80.7722 1220.2 77.2195 1217.78 79.9548C1215.35 82.7025 1213.81 81.7373 1213.81 81.7373C1213.81 81.7373 1204.24 74.4184 1205.2 80.5503C1206.16 86.7316 1204.19 86.3579 1203.49 86.8836C1202.8 87.4093 1189.37 81.8154 1191.22 78.6282C1193.06 75.4534 1193.4 74.5703 1191.99 70.3893C1190.58 66.2328 1187.98 68.8533 1176.98 64.705C1166.05 60.5774 1165.99 63.6905 1165.99 63.6905C1166.82 67.7607 1168.26 70.6111 1157.29 69.8061C1146.34 69.0011 1147.65 64.5613 1147.65 64.5613C1139 64.9268 1128.78 63.9821 1128.78 63.9821C1128.78 63.9821 1119.86 61.448 1116.73 64.3436C1113.59 67.2514 1102.32 66.9598 1102.32 66.9598C1102.32 66.9598 1104.48 62.9636 1115.04 57.3368C1125.51 51.7511 1125.3 50.0425 1125.6 45.3604C1125.91 40.707 1112.87 37.4829 1112.87 37.4829L1100.12 37.0639C1100.12 37.0639 1100.68 40.707 1096.1 39.5857C1091.52 38.4645 1098.14 34.4149 1098.14 34.4149C1091.31 32.8131 1087 35.1131 1087 35.1131C1086.39 32.6077 1091.29 30.8046 1091.29 30.8046C1091.29 30.8046 1091.33 26.6564 1082.26 27.8311C1073.18 29.0057 1074.16 34.2095 1075.07 37.0721C1075.99 39.943 1072.91 39.0313 1072.91 39.0313C1066.24 39.1011 1063.46 42.124 1063.46 42.124C1063.46 42.124 1065.79 45.0154 1059.85 45.229C1053.9 45.4425 1055.8 42.124 1055.8 42.124C1045.77 42.7565 1046.87 45.652 1046.87 45.652C1038.23 46.2188 1016.74 54.2605 1021.97 58.1377C1027.22 62.0353 1023.34 61.4563 1021.04 63.3373C1018.73 65.2225 1008.51 63.1936 1003.46 64.7871C998.399 66.3848 1002.92 69.1572 1002.92 69.1572L1004.07 74.8045C1004.07 74.8045 1009.45 74.1432 1010.35 77.6795C1011.26 81.2322 1005.31 78.9362 1000.87 76.0571C996.439 73.1863 986.286 73.8475 989.187 74.365C992.089 74.8825 994.183 77.7575 992.389 78.7186C990.591 79.6796 990.567 79.5318 993.082 82.723C995.611 85.9266 987.955 82.9448 987.955 82.9448C987.955 82.9448 983.384 85.7788 983.481 78.2709C983.577 70.8411 977.85 70.147 977.85 70.147C982.077 72.8207 980.024 75.1741 980.158 75.9832C980.293 76.7964 972.772 78.7884 976.467 81.9016C980.179 85.0272 979.455 92.6787 979.455 92.6787C979.455 92.6787 980.345 98.3795 985.478 97.365C990.605 96.3546 995.732 99.1886 995.732 99.1886C995.732 99.1886 1003.99 108.368 999.955 108.163C995.915 107.957 991.523 99.7964 991.523 99.7964C991.523 99.7964 979.779 98.9832 984.064 102.844C988.369 106.725 986.406 106.931 981.673 112.685C976.905 118.484 968.591 116.825 968.463 115.995C968.335 115.165 976.757 111.243 978.402 106.931C980.038 102.643 975.829 99.1886 975.829 99.1886L973.493 82.5464C973.493 82.5464 967.231 82.3493 970.429 79.7741C973.617 77.2112 971.82 72.1061 971.82 72.1061C962.75 68.2043 957.699 71.3257 957.699 71.3257C957.275 81.5525 949.195 77.7986 947.828 81.9509C946.452 86.1237 952.072 86.3209 952.072 86.3209C951.296 92.3255 948.684 87.9186 956.422 95.7468C964.244 103.657 952.648 99.3898 944.513 95.7468C936.416 92.1243 932.031 93.9314 928.902 92.7239C925.776 91.5205 920.756 88.3128 920.239 89.4382C919.718 90.5635 923.72 93.5289 926.925 95.3402C930.137 97.1597 928.191 102.639 925.918 103.045C923.641 103.452 921.015 98.3712 921.015 98.3712C921.015 98.3712 921.622 100.601 914.346 100.807C907.067 101.008 909.723 103.862 906.087 104.064C902.451 104.269 903.234 99.3857 903.234 99.3857C894.74 100.606 879.687 106.314 878.218 108.364C876.741 110.417 875.216 115.58 871.194 111.859C867.192 108.159 873.415 106.926 873.415 106.926C873.415 106.926 872.211 104.676 869.382 102.84C866.564 101.008 860.688 102.228 860.688 102.228C862.103 103.246 864.345 106.105 866.16 111.65C867.989 117.235 864.138 119.314 862.317 117.65C860.499 115.991 863.766 114.956 853.285 118.065C842.762 121.19 856.911 125.585 850.611 127.056C844.301 128.53 836.973 120.147 835.852 123.49C834.724 126.846 841.213 127.897 841.213 127.897C837.049 136.362 825.667 122.234 825.667 122.234C825.667 122.234 831.836 118.689 827.444 118.274C823.056 117.86 817.632 110.828 817.632 110.828C833.019 116.2 843.287 119.108 851.622 113.921C859.898 108.77 830.101 96.753 830.101 96.753C830.101 96.753 820.913 98.17 806.689 91.9189C792.585 85.7212 774.38 93.1264 774.38 93.1264C774.38 93.1264 744.41 105.086 740.332 114.935C738.269 119.917 728.467 131.015 722.74 132.921C716.999 134.83 710.465 137.623 708.888 148.733C707.287 160.007 712.314 161.321 716.458 161.239C720.601 161.157 723.199 159.921 726.056 157.539C728.905 155.165 732.255 155.736 732.255 155.736C731.603 160.332 738.876 168.106 738.876 168.106C738.876 168.106 735.895 173.865 741.505 173.947C747.118 174.029 745.148 172.526 747.873 170.936C750.592 169.355 755.795 169.269 755.795 169.269L756.281 157.863C758.996 158.027 763.743 156.224 763.536 152.142C763.329 148.08 757.809 147.998 757.809 147.998C757.954 140.901 760.321 137.217 760.321 137.217L774.4 129.664C774.231 118.509 782.177 118.821 782.177 118.821C782.177 118.821 790.208 118.04 789.046 124.144C787.873 130.296 773.648 134.904 773.648 134.904C773.648 134.904 773.503 144.121 774.086 146.946C774.673 149.784 781.269 151.164 788.331 150.758C795.387 150.351 798.709 146.786 804.381 150.187C810.077 153.608 790.774 153.037 791.288 153.037C791.802 153.037 779.762 152.277 780.041 155.978C780.324 159.699 783.94 159.477 783.94 159.477C783.94 159.477 787.555 159.366 787.334 162.993C787.114 166.636 783.298 166.525 783.298 166.525C783.298 166.525 783.533 162.993 778.175 162.993C772.817 162.993 772.565 166.747 772.565 166.747L773.089 173.971C767.552 175.425 768.484 178.226 767.621 178.674C766.759 179.122 760.204 173.524 757.123 176.879C754.028 180.247 745.648 180.925 745.648 180.925C745.648 180.925 742.84 178.9 734.463 179.348C726.08 179.799 727.318 175.647 728.377 172.074C729.43 168.517 729.098 162.993 729.098 162.993C724.941 164.537 715.209 168.628 719.859 172.074C724.531 175.532 722.409 180.473 722.409 180.473C722.409 180.473 720.756 179.516 713.035 182.559C705.283 185.611 703.341 191.012 703.341 191.012C703.341 191.012 699.684 189.303 693.387 195.242C687.043 201.226 679.463 200.302 679.463 200.302C680.081 203.075 673.177 202.845 673.177 202.845C673.177 202.845 664.521 202.266 664.225 205.046C663.928 207.835 668.734 207.605 668.734 207.605C679.577 207.49 680.754 214.973 680.595 219.922C680.433 224.9 675.961 224.428 675.961 224.428C675.961 224.428 669.3 224.904 657.294 224.308C645.298 223.713 647.73 228.72 647.73 228.72L647.395 238.577C643.366 239.423 643.845 243.916 643.845 243.916L647.668 243.793L647.42 248.586C658.18 247.641 659.905 253.354 659.916 253.387C659.298 253.149 658.884 252.972 658.884 252.972C658.453 256.488 651.984 259.642 651.984 259.642C651.984 259.642 644.29 259.457 641.037 268.62C637.746 277.886 642.81 271.635 628.162 279.977C613.368 288.405 604.912 302.18 604.912 302.18C604.912 302.18 615.373 308.07 607.889 317.573C600.324 327.184 603.787 330.614 603.787 330.614C603.787 330.614 637.363 361.894 648.886 358.965C660.371 356.045 670.793 357.503 673.122 357.503C675.451 357.503 676.155 353.761 691.29 352.722C706.408 351.687 708.333 358.965 708.333 358.965C717.627 362.522 729.623 351.687 724.331 365.04C718.955 378.597 724.248 381.16 724.248 381.16C744.41 397.141 741.763 404.797 741.763 404.797C747.511 413.849 741.222 418.075 741.222 418.075C731.572 429.744 737.068 450.752 745.065 455.38C753.104 460.034 750.771 474.61 750.771 474.61C758.906 479.358 769.177 496.177 769.177 496.177C768.791 509.352 777.588 506.9 777.588 506.9C777.588 506.9 788.262 504.699 805.913 504.452C823.559 504.206 839.716 477.46 839.716 477.46C839.716 477.46 838.888 468.24 848.855 464.248C858.777 460.272 847.772 446.608 847.772 446.608C847.772 446.608 848.772 438.139 868.451 432.458C888.009 426.815 867.951 409.204 866.191 401.511C864.445 393.88 862.527 383.735 895.399 365.044C927.594 346.734 915.461 333.049 915.461 333.049C915.461 333.049 902.475 338.335 884.635 338.54C884.635 338.54 875.848 326.186 860.364 321.771C860.364 321.771 860.933 314 849.641 310.834C849.641 310.834 852.795 303.162 842.748 296.142C842.748 296.142 825.229 268.875 815.01 268.998C801.455 269.167 782.239 264.497 782.239 264.497C782.239 264.497 770.847 260.948 772.13 268.809C773.424 276.744 751.375 267.68 751.375 267.68C751.375 267.68 748.57 262.998 738.648 262.998C728.726 262.998 727.629 260.759 727.629 260.759C727.629 260.759 728.46 258.714 730.737 252.787C732.997 246.906 721.112 248.923 721.112 248.923C677.897 249.843 688.178 253.896 677.711 255.375C669.337 256.558 662.403 254.34 659.926 253.391C659.96 253.375 669.099 248.923 675.068 249.9C681.054 250.882 685.635 243.916 684.8 241.365C683.969 238.819 687.874 235.201 691.317 234.839C694.757 234.478 699.522 231.237 699.522 231.237L699.632 225.98C705.228 224.551 712.024 226.457 713.284 226.457C719.973 226.457 727.329 220.045 728.039 222.296C728.75 224.551 734.677 230.757 744.616 234.597C754.601 238.458 754.097 241.727 751.758 243.308C749.412 244.889 737.599 245.62 737.599 245.62L750.93 251.005C750.93 251.005 750.15 246.109 752.879 246.109C755.608 246.109 760.6 239.907 760.6 239.907C760.6 239.907 754.415 237.973 757.475 236.765C760.531 235.558 764.382 238.577 764.382 238.577C764.288 233.636 753.621 232.194 753.621 232.194L754.497 230.038C754.497 230.038 752.89 231.114 750.178 230.519C747.47 229.919 740.953 223.011 739.148 219.811C737.351 216.624 748.436 217.45 748.436 217.45C749.757 224.432 767.286 230.038 767.286 230.038C767.007 233.997 769.246 237.369 769.246 237.369C778.451 243.185 778.033 247.941 778.033 247.941C788.052 253.584 786.365 246.475 786.365 246.475C789.67 247.329 794.924 246.717 794.924 246.717C792.389 247.083 778.823 236.885 785.382 238.334C791.951 239.788 788.89 234.958 788.89 234.958C797.039 235.439 798.595 238.215 798.595 238.215C802.57 251.128 811.233 252.972 814.5 252.603C817.767 252.233 820.134 248.586 820.134 248.586C820.134 248.586 821.838 253.219 829.276 252.356C836.711 251.494 838.967 249.654 838.967 249.654C838.967 249.654 846.278 255.309 841.148 258.028C836 260.755 838.722 266.115 834.079 268.493C829.421 270.879 818.691 269.91 818.691 269.91C825.126 272.337 832.761 282.556 832.761 282.556C835.076 279.665 838.208 281.632 838.208 281.632C838.208 281.632 851.108 290.848 849.041 293.423C849.041 293.423 857.459 296.011 857.687 304.336C857.687 304.336 867.406 308.267 872.681 317.512C878.007 326.856 878.87 332.318 879.28 332.692C879.691 333.066 891.014 331.431 905.452 326.589C919.811 321.771 917.655 319.377 934.974 318.046C934.974 318.046 951.099 307.482 950.175 300.167C949.257 292.914 933.487 292.397 933.487 292.397L932.048 286.487C932.048 286.487 932.234 293.428 912.928 293.686C912.928 293.686 907.001 285.718 898.976 279.853C891.01 274.03 905.832 274.284 905.832 274.284C905.832 274.284 914.101 285.973 923.071 286.232C932.045 286.487 932.428 283.423 932.428 283.423C932.428 283.423 937.848 288.285 943.506 288.799C949.167 289.312 978.734 289.826 978.734 289.826C978.734 289.826 989.667 295.502 989.601 297.572C989.536 299.65 997.733 296.795 997.733 296.795C997.733 296.795 999.42 300.43 991.947 300.693C991.947 300.693 1002.73 309.593 1007.06 301.215C1007.06 301.215 1009.54 314.341 1012.62 319.381C1015.72 324.449 1036.26 346.401 1036.26 346.401C1036.26 346.401 1042.33 348.048 1048.28 336.035C1054.15 324.182 1035.96 324.72 1058.82 314.604C1081.42 304.607 1074.23 302.517 1074.23 302.517C1074.23 302.517 1085.89 306.176 1091.42 300.172C1091.42 300.172 1096.08 308.012 1105.76 310.908C1115.47 313.811 1109.72 320.444 1109.72 320.444C1109.72 320.444 1114.85 324.515 1122.22 318.58C1124.35 316.867 1127.18 320.777 1129.42 325.587C1131.67 330.425 1132.25 341.814 1133.96 344.274C1135.68 346.742 1143.78 352.94 1143.78 352.94C1146.68 357.93 1149.31 360.436 1149.31 360.436C1162.45 372.65 1169.93 368.416 1166.93 366.941C1163.94 365.467 1162.19 360.645 1159.24 355.638C1156.3 350.661 1145.28 349.42 1145.28 349.42C1144.36 345.506 1137.96 342.837 1137.96 342.837C1136.55 336.709 1140.07 330.823 1140.07 330.823C1157.88 334.47 1145.42 337.723 1156.27 338.54C1167.13 339.358 1164.55 346.471 1164.55 346.471C1181.62 339.645 1181.31 335.082 1181.31 335.082C1182.83 325.385 1175.26 322.576 1175.26 322.576C1175.26 322.576 1165.3 321.574 1161.33 313.61C1157.4 305.716 1168.86 302.973 1168.86 302.973C1210.07 301.995 1215.93 287.834 1220.11 279.985C1224.25 272.206 1218.79 266.748 1218.79 266.748C1218.79 266.748 1214.81 266.374 1213.19 262.628C1211.57 258.903 1206.28 255.749 1206.28 255.749C1205.32 249.477 1217.82 253.9 1216.64 249.843C1215.47 245.809 1208.1 245.809 1208.1 245.809C1204.31 247.826 1202.56 247.456 1202.56 247.456C1191.84 243.251 1195.47 244.528 1204.08 237.435C1212.61 230.399 1210.92 242.339 1210.92 242.339C1211.37 241.066 1227.53 234.182 1225.78 241.066C1224.03 248.007 1233.53 246.906 1233.53 246.906C1234.9 261.507 1234.61 259.646 1243.77 256.303C1252.89 252.972 1246.76 248.192 1240 243.07C1233.29 237.981 1238.73 240.704 1244.53 232.198C1250.26 223.783 1256.37 228.609 1256.37 228.609C1276.79 216.16 1279.5 203.551 1279.5 203.551L1276.27 191.649C1276.27 191.649 1278.4 185.508 1272.56 181.442C1266.75 177.397 1268.92 180.765 1262.69 180.937C1256.46 181.105 1248.63 176.39 1248.63 176.39L1273.72 154.36C1273.72 154.36 1291.84 157.469 1295.46 155.341C1299.08 153.218 1308.7 154.853 1308.7 154.853C1308.7 154.853 1301.87 156.652 1316.19 156.98C1330.52 157.309 1321.1 153.547 1321.1 153.547C1321.71 142.207 1339.32 139.476 1339.23 141.886C1339.15 144.301 1336.61 148.343 1341.17 148.183C1345.73 148.018 1354.57 137.397 1354.9 141.406C1355.23 145.431 1349.71 147.698 1342.54 155.674C1335.29 163.732 1328.83 162.41 1330.03 169.043C1331.25 175.729 1342.59 191.147 1343.36 193.891C1344.14 196.643 1352.55 197.16 1351.3 190.466C1350.05 183.824 1354.89 184.108 1354.89 184.108C1351.95 178.362 1360.62 176.456 1360.62 176.456C1360.62 176.456 1354 174.665 1357.64 170.653C1361.26 166.661 1360.81 162.467 1358.26 162.578C1355.72 162.689 1351.83 155.021 1358.13 151.867C1364.41 148.725 1368.22 152.191 1368.22 152.191C1368.22 152.191 1370.41 148.725 1374.21 148.4C1378.02 148.076 1383.83 151.76 1383.83 151.76C1383.94 148.725 1398.04 136.498 1406.1 137.455C1414.17 138.416 1416.53 146.133 1415.24 138.523C1413.96 130.982 1404.12 126.661 1404.12 126.661C1408.89 125.61 1413.38 125.819 1413.79 122.575C1414.21 119.342 1406.78 115.81 1411.36 116.328C1415.96 116.845 1417.03 121.527 1418.55 121.527C1420.06 121.527 1418.29 117.572 1432.28 125.084C1446.4 132.674 1438.25 125.61 1442.63 121.215C1446.98 116.812 1455.65 120.973 1445.61 115.675Z" fill="white" fill-opacity="0.08"/>
<path d="M666.97 171.344C665.5 175.193 667.77 177.209 667.77 177.209C676.437 176.203 674.46 180.162 674.46 180.162C674.46 180.162 676.999 182.442 674.108 182.61C671.213 182.779 669.592 183.966 670.272 186.685C670.955 189.412 666.056 186.857 666.232 188.898C666.411 190.948 670.834 192.488 670.04 192.488C669.247 192.488 661.322 198.509 661.322 198.509C669.416 194.891 689.257 194.718 689.257 194.718C694.749 194.533 692.465 193.342 692.465 193.342L690.927 191.63C692.59 188.553 693.987 185.321 693.987 185.321H687.939C688.025 182.269 686.28 179.23 682.923 177.797C679.569 176.367 678.686 171.677 678.686 171.677C678.686 171.677 673.163 173.016 675.098 170.01C677.027 167.016 680.787 163.372 678.462 163.208C676.133 163.044 666.922 166.354 670.958 162.88C674.974 159.421 672.718 157.614 672.718 157.614C663.634 158.6 664.52 161.89 662.768 166.354C661.001 170.843 668.433 167.517 666.97 171.344Z" fill="white" fill-opacity="0.08"/>
<path d="M649.009 185.829C645.59 190.602 642.73 189.92 646.601 192.142C650.482 194.372 647.974 190.429 654.608 189.575C661.236 188.721 659.469 181.418 659.469 181.418C664.068 178.215 663.326 177.204 660.07 175.356C656.82 173.512 651.976 174.181 652.38 176.868C652.783 179.562 655.35 179.899 650.096 180.157C644.841 180.416 643.482 181.25 645.117 183.792C646.76 186.343 652.407 181.086 649.009 185.829Z" fill="white" fill-opacity="0.08"/>
<path d="M624.406 128.469C628.687 125.159 627.935 128.785 629.953 125.159C631.961 121.549 632.596 115.778 622.998 116.398C613.39 117.023 618.637 116.866 612.676 117.799C606.707 118.735 605.717 121.549 602.795 120.296C599.876 119.047 604.306 117.331 599.003 114.69C599.003 114.69 592.735 114.534 597.879 118.891C597.879 118.891 592.493 117.179 590.454 120.14C588.408 123.113 599.069 119.672 599.072 122.489C599.079 125.315 593.273 125.159 593.273 125.159C593.273 125.159 602.954 127.364 597.706 129.418C592.445 131.476 597.299 131.159 600.601 131.159C603.902 131.159 606.017 133.225 610.571 133.541C615.118 133.862 620.103 131.796 624.406 128.469Z" fill="white" fill-opacity="0.08"/>
<path d="M1051.07 341.384C1051.07 341.384 1047.57 342.818 1048.46 347.75C1049.34 352.712 1053.45 352.917 1055.7 352.506C1057.94 352.092 1058.71 349.956 1057.59 346.999C1056.46 344.05 1051.07 341.384 1051.07 341.384Z" fill="white" fill-opacity="0.08"/>
<path d="M1177.89 382.867C1177.89 382.867 1164.02 378.341 1162.2 373.461C1160.39 368.603 1128.55 355 1120.9 354.585C1120.9 354.585 1141.69 365.843 1145.12 371.363C1149.81 378.912 1167.29 392.79 1173.47 392.572C1179.65 392.35 1182.18 395.389 1177.89 382.867Z" fill="white" fill-opacity="0.08"/>
<path d="M1221.38 402.921C1227.77 402.264 1229.68 401.607 1229.08 401.607C1228.49 401.607 1221.45 400.404 1214.7 398.001C1207.96 395.606 1205.76 396.26 1201.05 396.477C1196.34 396.695 1192.17 395.5 1189.85 393.976C1187.54 392.456 1179.09 393.323 1181.39 395.606C1181.39 395.606 1187.3 400.404 1198.67 400.514C1210.02 400.625 1214.98 403.583 1221.38 402.921Z" fill="white" fill-opacity="0.08"/>
<path d="M1191.62 374.754C1197.17 376.881 1197.69 382.865 1197.69 382.865C1203.14 381.687 1202.03 382.545 1209.82 383.51C1217.61 384.476 1215.15 386.303 1221.89 386.628C1228.64 386.952 1226.55 378.804 1226.55 378.804C1232.11 377.629 1230.55 370.409 1230.55 370.409C1237.48 372.101 1238.42 368.191 1234.89 368.4C1231.36 368.61 1224.6 363.771 1225.02 361.57C1225.43 359.373 1232.89 358.958 1231.58 358.958C1230.27 358.958 1229.33 357.705 1229.33 357.705C1232.1 356.144 1231.11 355.208 1231.11 355.208C1227.21 354.793 1224.83 352.51 1222.77 351.889C1220.71 351.269 1218.28 350.854 1217.84 351.889C1217.4 352.924 1214.84 357.393 1211.46 357.29C1208.08 357.188 1209.68 357.705 1208.04 358.124C1206.41 358.543 1210.49 361.258 1206.31 361.467C1202.13 361.677 1203.06 362.412 1199.97 365.665C1196.87 368.93 1196.08 365.874 1191.5 366.4C1186.92 366.926 1186.08 372.63 1191.62 374.754Z" fill="white" fill-opacity="0.08"/>
<path d="M1240 384.475C1242.87 384.688 1242.53 385.066 1243.88 389.05C1245.24 393.055 1246.91 392.944 1246.91 392.944C1249.65 392.89 1248.72 391.21 1248.72 391.21C1247.39 387.321 1245.63 383.238 1248.48 383.883C1251.32 384.528 1252.73 387.863 1257.58 391.05C1262.45 394.25 1261.5 390.508 1261.19 389.214C1260.89 387.921 1259.39 387.596 1259.39 387.596C1255.6 387.543 1258.5 384.048 1255.88 383.937C1253.27 383.83 1251.9 380.614 1251.9 380.614C1251.9 380.614 1250.25 378.478 1253.67 377.837C1257.09 377.197 1258.67 375.55 1258.67 375.55C1254.03 374.01 1250.64 376.03 1248.19 375.924C1245.73 375.817 1243.71 380.351 1243.45 375.55C1243.18 370.777 1249.69 372.736 1255.03 372.683C1260.38 372.63 1261.52 371.784 1264.09 370.038C1266.64 368.297 1262.98 365.82 1262.21 367.664C1261.44 369.512 1259.19 369.829 1254.91 370.252C1250.64 370.675 1252.65 369.775 1246.56 369.25C1240.48 368.72 1240.41 372.371 1240.88 374.281C1241.35 376.195 1239.77 374.494 1240.44 376.622C1241.12 378.753 1241.58 379.875 1239.75 381.747C1237.91 383.616 1237.13 384.257 1240 384.475Z" fill="white" fill-opacity="0.08"/>
<path d="M1241.86 401.663C1237 402.156 1235.03 399.913 1230.88 403.252C1230.88 403.252 1231.8 404.735 1235.42 404.571C1239.03 404.406 1241.64 403.31 1244.99 403.252C1248.34 403.195 1246.72 401.17 1241.86 401.663Z" fill="white" fill-opacity="0.08"/>
<path d="M1249.22 407.373C1252.22 407.373 1251.97 410.187 1253.48 409.69C1254.98 409.193 1257.46 408.971 1253.92 407.045C1250.38 405.119 1251.63 405.065 1248.66 405.394C1245.69 405.722 1245.74 404.568 1245.46 405.997C1245.46 405.997 1246.23 407.373 1249.22 407.373Z" fill="white" fill-opacity="0.08"/>
<path d="M1269.58 409.413C1271.06 409.356 1274.65 408.309 1275.4 406.05C1276.15 403.799 1280.83 405.721 1283.04 403.631C1283.04 403.631 1284.07 402.095 1279.1 402.205C1274.13 402.316 1274.44 403.355 1272.65 405.606C1270.85 407.861 1269.37 404.616 1266.57 411.672C1266.57 411.681 1268.1 409.467 1269.58 409.413Z" fill="white" fill-opacity="0.08"/>
<path d="M1342.19 382.222C1340.72 380.792 1334.67 381.507 1329.01 379.885C1323.37 378.262 1320.02 380.653 1318.01 382.936C1316 385.228 1312.27 384.653 1310.53 379.885C1308.81 375.141 1309.3 374.825 1301.11 374.964C1292.92 375.108 1285.47 376.381 1293.55 378.373C1301.64 380.365 1297.75 382.365 1301.8 383.367C1305.87 384.37 1306.46 388.099 1307.05 388.099C1307.65 388.099 1309.08 385.799 1309.08 385.799C1312.3 387.236 1317.24 389.68 1324.05 389.955C1330.86 390.23 1338.05 395.171 1339.16 398.511C1340.29 401.862 1329.55 397.057 1333.09 400.548C1336.64 404.055 1340.64 400.548 1344.32 400.839C1348 401.131 1351.77 405.226 1351.77 405.226C1351.77 405.226 1360.3 406.84 1360.94 404.055C1361.57 401.279 1362.79 396.765 1372.21 400.987C1381.68 405.226 1384.09 409.193 1391.57 408.897C1399.06 408.602 1405.24 411.846 1382.04 400.112C1359.14 388.53 1376.69 386.805 1342.19 382.222Z" fill="white" fill-opacity="0.08"/>
<path d="M1257.85 404.058C1261.98 403.545 1265.24 402.769 1271.64 402.206C1271.64 402.206 1267.34 400.769 1258.12 402.596C1258.12 402.596 1255.8 401.697 1250.59 401.672C1247.4 401.656 1250.26 402.596 1250.26 402.596C1250.26 402.596 1253.71 404.568 1257.85 404.058Z" fill="white" fill-opacity="0.08"/>
<path d="M1275.57 384.043C1272.93 383.616 1275.31 384.15 1272.66 384.688C1272.66 384.688 1274.43 386.643 1276.35 386.634C1278.27 386.622 1278.21 384.474 1275.57 384.043Z" fill="white" fill-opacity="0.08"/>
<path d="M1283.9 386.635C1285.62 385.978 1287.84 385.013 1292.25 385.871C1296.66 386.734 1298.16 385.847 1296.41 384.996C1294.67 384.15 1289.95 383.719 1281.84 383.292C1281.84 383.292 1282.17 387.288 1283.9 386.635Z" fill="white" fill-opacity="0.08"/>
<path d="M1272.88 369.349C1272.32 370.828 1277.1 370.195 1277.47 372.84C1277.85 375.494 1279.29 378.8 1280.18 375.921C1281.07 373.054 1283.53 373.42 1280.39 370.853C1277.26 368.294 1276.18 367.136 1278.51 364.712C1278.51 364.712 1273.45 367.875 1272.88 369.349Z" fill="white" fill-opacity="0.08"/>
<path d="M1312.2 396.477C1309.33 396.806 1317.7 398.777 1317.11 395.557C1316.52 392.349 1318.99 393.109 1314.8 391.158C1314.8 391.158 1315.07 396.153 1312.2 396.477Z" fill="white" fill-opacity="0.08"/>
<path d="M1302.66 397.372C1303.4 399.253 1301.51 399.639 1301.51 399.639C1301.51 399.639 1298.79 402.157 1302.99 401.377C1307.18 400.596 1301.93 395.499 1302.66 397.372Z" fill="white" fill-opacity="0.08"/>
<path d="M1418.37 459.792C1415.38 453.286 1410.11 454.826 1410.11 454.826C1410.11 454.826 1404.32 444.755 1397.27 443.839C1390.23 442.924 1383.94 436.303 1379.27 429.058C1374.63 421.866 1370.61 426.803 1369.37 423.209C1368.13 419.628 1359.72 409.192 1357.25 410.74C1354.78 412.288 1359.34 426.577 1359.44 433.128C1359.54 439.724 1342.97 431.994 1335.27 427.928C1327.6 423.883 1335.7 421.862 1335.29 417.845C1334.87 413.841 1325.02 414.954 1317.42 414.954C1309.82 414.954 1301.84 415.845 1300.99 422.063C1300.13 428.327 1294.56 425.682 1294.56 425.682C1294.56 425.682 1296.98 422.54 1288.83 422.092C1280.68 421.645 1281.28 426.581 1277.23 429.284C1273.18 431.994 1277.01 436.763 1274.12 433.128C1271.24 429.51 1268.02 431.994 1268.55 434.717C1269.09 437.445 1269.12 443.154 1263.14 443.614C1257.17 444.074 1244.97 446.369 1237.34 452.366C1229.65 458.399 1233.62 457.701 1236.36 464.474C1239.12 471.296 1235.82 469.411 1236.58 472.24C1237.34 475.078 1251.35 488.928 1254.46 494.234C1257.6 499.569 1253.45 501.274 1253.45 501.274C1254.93 507.874 1259.12 509.348 1268.34 509.102C1277.56 508.856 1271.92 502.005 1279.75 502.978C1287.6 503.956 1296.17 502.001 1296.17 502.001C1300.86 494.472 1312.55 497.865 1316.53 495.437C1320.49 493.018 1328.88 492.776 1333.98 492.776C1339.08 492.776 1353.01 500.534 1353.25 503.216C1353.49 505.907 1360.38 510.568 1358.65 507.623C1356.93 504.683 1365.27 498.592 1365.27 498.592C1369.37 499.565 1368.18 507.377 1368.18 507.377C1370.99 504.44 1372.64 511.307 1372.64 511.307C1375.74 512.047 1377.59 509.094 1381.11 516.737C1384.65 524.442 1398.63 526.192 1401.64 527.527C1404.66 528.861 1407.24 523.448 1407.24 523.448C1414.73 528.447 1420.12 527.444 1420.12 527.444C1422.88 519.961 1437.32 522.947 1437.32 522.947C1434.83 518.721 1433.15 505.414 1435.47 498.83C1437.77 492.291 1440.32 491.568 1435.62 477.206C1430.99 463.065 1418.37 459.792 1418.37 459.792Z" fill="white" fill-opacity="0.08"/>
<path d="M1424.41 539.54C1418.95 539.54 1413.11 537.515 1413.11 537.515C1413.97 541.824 1419.59 544.115 1419.59 544.115C1421.5 549.52 1423.89 551.783 1428.04 552.814C1432.2 553.841 1432.16 550.502 1434.2 547.179C1436.23 543.865 1431.11 538.534 1431.11 538.534C1431.11 538.534 1429.87 539.54 1424.41 539.54Z" fill="white" fill-opacity="0.08"/>
<path d="M1251.89 263.451C1251.89 263.451 1253.61 264.104 1255.75 263.451C1257.89 262.798 1252.89 265.324 1255.28 268.137C1257.67 270.963 1259.1 271.525 1260.87 270.113C1262.64 268.7 1266.86 267.176 1263.17 263.348C1259.48 259.537 1254.97 259.163 1251.89 263.451Z" fill="white" fill-opacity="0.08"/>
<path d="M1284.87 249.001C1281.3 249.367 1279.92 249.736 1278.27 252.221C1276.62 254.714 1267.73 254.809 1263.7 255.084C1259.68 255.363 1256.49 258.977 1256.49 258.977C1260.58 259.906 1261.54 259.536 1261.54 259.536C1267.31 255.638 1275.03 257.864 1275.03 257.864C1275.18 259.166 1274.8 259.721 1275.7 260.361C1281.69 264.637 1281.7 256.012 1281.7 256.012C1284.93 256.661 1284.49 257.404 1287.94 257.864C1291.39 258.328 1293.05 254.25 1293.05 254.25C1293.05 254.25 1294.08 257.306 1298.07 255.729C1302.07 254.156 1295.57 244.693 1295.57 244.693C1295.57 244.693 1300.38 242.413 1298.41 239.05C1296.45 235.698 1294.02 233.714 1291.04 233.714C1288.06 233.714 1288.39 235.517 1288.39 235.517C1290.13 239.867 1288.44 248.631 1284.87 249.001Z" fill="white" fill-opacity="0.08"/>
<path d="M1287.68 226.085C1284.21 226.265 1283.67 229.485 1291.66 230.742C1291.66 230.742 1285.47 228.409 1290.87 228.409C1296.27 228.409 1297.08 232.36 1301.12 230.742C1305.16 229.128 1298.68 226.799 1308.72 226.976C1308.72 226.976 1310.56 223.764 1304.68 222.339C1298.81 220.918 1293.5 219.854 1290.79 216.49C1290.79 216.49 1287.49 216.872 1290.64 223.776C1290.64 223.776 1291.16 225.908 1287.68 226.085Z" fill="white" fill-opacity="0.08"/>
<path d="M1290.07 214.378C1290.07 214.378 1288.8 211.972 1291.98 211.565C1295.16 211.158 1298.15 214.378 1298.15 214.378C1298.84 211.742 1289.21 208.587 1289.28 203.708C1289.36 198.858 1298.67 202.837 1298.67 202.837C1296.33 201.449 1290.26 196.956 1287.01 190.602C1283.78 184.302 1281.6 177.205 1280.76 178.889C1279.91 180.577 1279.48 179.394 1279.75 183.961C1280.02 188.553 1280.59 188.039 1282.53 192.315C1284.47 196.611 1282.58 196.956 1284.23 201.794C1285.89 206.665 1290.07 214.378 1290.07 214.378Z" fill="white" fill-opacity="0.08"/>
<path d="M1322.73 216.494C1324.28 216.317 1327.85 214.378 1327.85 214.378C1323.2 212.62 1321.19 216.67 1322.73 216.494Z" fill="white" fill-opacity="0.08"/>
<path d="M1313.19 220.563C1313.19 220.563 1318.98 220.21 1320.11 217.376C1321.23 214.555 1312.52 217.906 1313.19 220.563Z" fill="white" fill-opacity="0.08"/>
<path d="M1268.05 262.238C1268.01 260.842 1272.23 261.959 1273.33 261.959C1274.43 261.959 1274.57 259.47 1269.33 258.513C1268.31 258.328 1263.96 259.363 1264.24 261.544C1264.24 261.544 1266.99 264.551 1267.32 265.59C1267.65 266.633 1268.08 263.639 1268.05 262.238Z" fill="white" fill-opacity="0.08"/>
<path d="M1226.76 290.319C1224.71 288.2 1220.78 291.092 1219.24 294.574C1219.24 294.574 1221.35 300.998 1224.45 300.998C1227.56 300.998 1223.56 298.85 1225.08 296.324C1226.6 293.798 1228.82 292.443 1226.76 290.319Z" fill="white" fill-opacity="0.08"/>
<path d="M1183.35 307.664C1183.48 304.912 1182.37 308.256 1177.97 307.664C1177.97 307.664 1172.86 308.847 1172.63 311.217C1172.4 313.591 1176.34 314.585 1179.6 313.989C1182.86 313.394 1183.22 310.424 1183.35 307.664Z" fill="white" fill-opacity="0.08"/>
<path d="M1397.6 391.586C1404.09 386.719 1401.54 387.811 1399.41 385.261C1397.29 382.719 1387.36 382.222 1387.36 382.222C1401.54 387.811 1394.47 386.304 1392.85 389.955C1391.22 393.623 1380.39 389.955 1380.39 389.955C1389.13 396.888 1391.06 396.478 1397.6 391.586Z" fill="white" fill-opacity="0.08"/>
<path d="M912.977 419.18C911.904 423.657 908.143 428.602 898.514 429.28C888.875 429.958 889.937 431.765 891.614 436.985C893.301 442.234 895.216 443.61 891.676 448.666C888.116 453.75 889.096 450.74 890.865 457.233C892.649 463.768 897.876 467.053 897.876 467.053C911.635 468.7 912.483 454.913 915.178 444.76C917.844 434.718 920.587 428.832 919.58 421.866C918.576 414.95 914.046 414.728 912.977 419.18Z" fill="white" fill-opacity="0.08"/>
<path d="M894.545 80.3537C898.105 79.9594 901.8 83.7215 901.234 84.5183C900.665 85.3151 904.177 87.307 907.776 87.1058C911.371 86.9045 915.014 87.1058 915.014 87.1058C915.014 87.1058 904.295 82.5304 905.913 73.8562C907.514 65.2805 926.14 49.1805 931.439 48.0469C936.728 46.9133 950.894 43.143 952.357 40.1406C953.816 37.1506 952.581 35.2901 945.246 35.1012C937.915 34.9163 939.264 39.9517 939.264 39.9517C939.264 39.9517 930.252 43.1388 927.648 42.0135C925.05 40.8881 922.055 42.3913 920.675 44.0835C919.295 45.7797 914.603 44.0835 913.879 45.9686C913.151 47.8579 910.132 49.3735 908.707 50.8931C907.282 52.4128 903.405 52.2239 906.058 55.6574C906.058 55.6574 902.846 58.5283 902.442 60.6434C902.038 62.7668 893.52 61.8017 895.994 63.732C898.478 65.6665 899.085 66.4428 896.139 68.5826C893.182 70.7265 892.437 72.8786 894.718 72.8786C896.998 72.8786 893.12 76.2137 890.488 76.0165C887.852 75.8194 890.985 80.748 894.545 80.3537Z" fill="white" fill-opacity="0.08"/>
<path d="M1260.15 342.957C1257.06 342.957 1256.9 345.832 1252.52 345.282C1248.15 344.735 1243.24 344.46 1244.61 350.506C1246 356.593 1244.31 349.434 1247.35 348.592C1250.39 347.75 1254.3 347.331 1254.19 348.851C1254.19 348.851 1252.58 352.576 1258.99 353.956C1265.41 355.34 1257.78 351.746 1259.29 349.401C1260.8 347.064 1261.65 349.245 1263.8 351.253C1265.95 353.266 1263.23 342.957 1260.15 342.957Z" fill="white" fill-opacity="0.08"/>
<path d="M1229 324.358C1234.58 326.872 1227.8 326.166 1232.87 328.384C1237.95 330.606 1237.03 325.969 1234.69 325.767C1232.35 325.566 1233.27 320.855 1234.78 320.157C1236.29 319.459 1237.54 319.857 1236.76 317.664C1235.98 315.475 1234.52 315.676 1234.52 315.676C1233.16 311.811 1226.41 312.304 1226.41 312.304C1224.99 313.791 1229.48 319.06 1228.92 320.596C1228.36 322.128 1223.43 321.853 1229 324.358Z" fill="white" fill-opacity="0.08"/>
<path d="M1248.66 336.791C1245.72 339.033 1247.3 336.08 1242.78 335.366C1238.26 334.655 1238.44 334.959 1240.72 338.52C1243.01 342.097 1243.22 340.528 1242 342.951C1240.78 345.383 1244.39 343.227 1247.27 342.303C1250.16 341.383 1249.24 339.744 1254.39 339.132C1259.54 338.52 1257.03 333.739 1254.35 332.827C1251.68 331.916 1247.71 331.612 1247.41 330.096C1247.1 328.581 1241.25 327.574 1239.87 328.281C1239.87 328.281 1244.65 329.998 1246.11 332.523C1247.58 335.062 1247.68 334.146 1249.64 333.641C1251.61 333.135 1251.6 334.556 1248.66 336.791Z" fill="white" fill-opacity="0.08"/>
<path d="M1234.43 329.999C1231.52 328.689 1229.2 329.596 1229.2 329.596C1229.2 329.596 1235.34 331.921 1235.49 333.744C1235.65 335.572 1237.36 331.313 1234.43 329.999Z" fill="white" fill-opacity="0.08"/>
<path d="M1221.17 345.762C1221.17 345.762 1226.38 343.367 1227.42 341.589C1228.46 339.814 1229.39 337.666 1228.06 336.024C1226.73 334.385 1226.98 339.827 1224.75 340.878C1222.51 341.93 1217.52 344.456 1219.53 345.762C1220.47 346.369 1221.17 345.762 1221.17 345.762Z" fill="white" fill-opacity="0.08"/>
<path d="M288.461 308.764V308.767L288.464 308.764H288.461Z" fill="white" fill-opacity="0.08"/>
<path d="M505.26 390.833C498.956 389.104 499.629 383.938 487.188 382.007C474.772 380.081 473.05 381.794 464.67 376.668C456.339 371.571 445.868 376.454 448.728 367.768C451.56 359.163 428.632 353.545 419.261 353.96C419.261 353.96 404.264 344.049 396.591 340.365C388.953 336.693 387.452 341.388 381.308 340.365C375.174 339.342 367.784 336.081 362.723 332.832C357.679 329.596 346.687 339.137 339.032 337.301C331.393 335.469 336.655 341.453 327.274 345.832C327.274 345.832 320.464 337.1 310.645 342.821C300.761 348.579 299.788 338.459 300.012 336.016C300.233 333.58 306.891 323.628 302.965 322.561C299.046 321.493 280.544 323.895 281.689 320.959C282.831 318.034 288.648 313.233 288.465 308.773C287.972 309.159 287.461 309.541 286.947 309.923C289.521 308.013 292.015 305.943 292.664 304.85C293.985 302.629 286.391 301.458 276.248 303.544C276.248 303.544 271.46 312.999 266.989 312.736C262.521 312.473 249.825 315.25 247.12 304.719C244.45 294.32 251.612 286.216 251.612 286.216C251.612 286.216 253.934 279.333 259.944 279.078C265.95 278.824 260.779 274.774 266.33 274.774C271.881 274.774 278.874 276.289 284.667 276.799C290.463 277.304 287.292 271.086 291.201 271.669C295.113 272.252 304.756 275.029 313.339 273.262C321.906 271.501 316.52 281.37 316.52 281.37C316.52 281.37 314.885 288.015 321.723 290.582C328.582 293.157 323.586 285.962 324.259 280.097C324.928 274.273 326.139 267.734 333.004 265.233C339.846 262.74 351.552 259.758 354.926 251.363C358.269 243.054 361.063 243.543 362.392 240.869C363.713 238.208 366.797 234.109 373.714 233.867C380.628 233.624 382.947 231.226 383.813 227.16C384.675 223.114 397.002 220.744 398.485 220.51C399.372 220.367 400.186 219.204 399.776 217.993C399.796 218.054 399.838 218.112 399.852 218.173L400.048 218.149C411.081 214.855 406.783 214.855 404.357 219.804C401.918 224.782 402.829 223.833 412.579 221.697C422.304 219.57 431.24 215.795 429.58 213.212C427.924 210.637 427.438 211.339 423.205 214.855C418.954 218.387 414.649 212.978 410.416 212.744C406.186 212.51 411.037 207.836 411.037 207.836C411.037 207.836 398.934 206.209 407.286 205.277C415.632 204.349 416.712 200.644 409.329 200.414C401.946 200.184 385.658 210.165 385.658 210.165C385.658 210.165 399.117 200.18 406.941 196.5C414.728 192.832 430.646 199.954 435.742 195.354C440.81 190.779 446.027 193.062 446.027 193.062L433.344 208.3C433.344 208.3 439.827 207.832 449.697 208.3C459.575 208.764 462.007 200.644 457.487 200.184C452.968 199.724 442.318 203.885 449.09 197.65C455.811 191.465 454.351 181.71 450.236 181.258C446.123 180.807 448.286 176.539 448.286 176.539C436.518 176.092 431.43 168.07 431.43 168.07C434.096 164.974 424.278 151.621 424.278 151.621C424.278 151.621 418.285 149.021 418.306 154.012C418.33 159.035 407.625 160.788 406.883 157.72C406.145 154.665 402.636 156.628 402.636 156.628L403.167 145.994C401.504 145.781 396.764 145.563 392.779 141.912C388.812 138.277 387.894 139.345 384.444 139.559C380.991 139.772 380.697 138.064 373.915 137.981C367.132 137.899 370.999 143.202 369.54 149.453C368.074 155.757 362.895 157.285 362.895 157.285C371.858 164.752 368.495 171.849 368.495 171.849C352.08 176.539 354.791 181.258 354.791 181.258C358.138 184.873 359.149 188.048 354.125 191.465C349.081 194.894 341.723 184.647 341.723 184.647L344.79 174.974C344.79 174.974 331.735 175.644 331.2 173.636C330.665 171.631 326.843 171.631 321.516 168.075C316.21 164.538 305.822 165.861 305.822 165.861C306.443 161.014 313.315 155.979 302.575 157.507C291.815 159.039 298.794 145.14 303.234 145.14C307.675 145.14 311.601 137.004 314.999 137.004C318.397 137.004 319.249 135.09 321.005 132.334C322.755 129.586 333.919 129.586 336.586 125.8C339.242 122.029 333.301 122.867 331.279 122.867C329.258 122.867 327.498 118.07 333.898 120.571C340.318 123.077 342.582 117.191 350.444 115.947C358.293 114.706 363.53 111.762 365.307 109.601C367.08 107.445 361.319 102.389 361.319 102.389C361.319 102.389 364.807 102.389 366.259 99.4934C367.705 96.6102 361.253 93.5833 357.361 93.2834C353.473 92.9795 351.072 94.6429 352.349 98.4297C353.632 102.237 347.719 99.0376 346.608 104.377C345.487 109.753 333.205 113.618 337.693 106.985C342.144 100.405 335.206 94.6429 336.43 97.5179C337.662 100.405 330.414 102.389 330.414 102.389C330.414 102.389 334.892 96.7581 328.761 95.5465C322.641 94.3348 326.267 91.924 325.639 88.7656C325.014 85.6236 323.893 78.9331 322.296 78.4895C320.702 78.0459 316.403 80.2679 313.422 86.8188C310.417 93.4272 312.408 91.0204 316.52 94.035C320.65 97.062 319.901 99.7974 313.998 103.153C308.068 106.525 310.69 100.713 310.3 97.9738C309.91 95.2466 304.732 91.924 300.05 96.1544C295.344 100.405 299.153 101.017 299.153 101.017C299.153 101.017 305.915 105.297 290.897 107.137C275.841 108.985 270.642 99.7974 269.148 99.7974C267.655 99.7974 270.518 103.457 259.375 105.601C248.2 107.749 232.199 106.213 232.199 106.213C232.199 106.213 242.873 99.4893 231.433 99.4893C219.989 99.4893 211.354 92.8276 205.199 93.4272C199.037 94.031 192.641 102.233 191.617 96.754C190.599 91.3161 184.606 90.1127 181.418 90.7165C172.59 92.384 172.738 90.1168 165.255 94.2281C157.731 98.364 148.336 104.677 143.113 98.8815C137.928 93.1274 134.474 94.3349 134.474 94.3349C128.885 92.5729 122.803 90.5153 115.634 91.119C108.458 91.7228 108.882 88.3179 101.634 89.1147C94.3748 89.9156 92.7015 86.1206 87.7715 86.1206C82.8414 86.1206 83.5107 81.5535 77.7665 81.9478C72.0188 82.342 63.0039 89.316 54.6791 89.5172C46.3508 89.7185 46.7924 98.1751 38.6538 98.5776C30.5084 98.9842 20.2136 103.457 27.7656 103.457C35.3177 103.457 36.7494 111.449 41.8175 112.07C46.889 112.69 45.4193 117.45 38.088 118.074C30.7499 118.698 35.3763 113.721 32.3196 114.55C29.2595 115.38 16.1771 116.83 15.6147 121.619C15.0489 126.436 24.5951 129.172 32.9406 126.436C41.2586 123.709 45.4089 132.556 37.0323 132.342C28.6557 132.133 27.5931 135.948 22.9839 136.376C18.3713 136.803 10.0671 141.501 12.5097 144.323C14.9627 147.153 11.3264 146.878 15.6768 151.56C18.3264 154.41 21.39 152.476 23.1495 150.705C22.256 152.525 21.8144 155.104 24.4571 156.427C28.3935 158.394 25.1436 157.959 34.1964 157.737C43.2492 157.519 39.3335 160.148 31.809 165.429C24.2363 170.748 0 178.121 0 178.121C38.3778 170.97 36.4596 165.869 46.5578 162.563C56.6145 159.269 54.0443 158.829 54.8343 156.205C55.3518 154.488 63.3903 151.013 68.8655 148.824C63.9147 151.695 63.6732 155.872 64.7841 157.08C66.1986 158.612 76.3658 151.634 81.9237 150.648C87.4748 149.662 79.3707 140.425 87.5265 146.224C95.7444 152.065 112.18 150.438 112.18 150.438C134.816 161.24 135.847 170.855 144.555 176.884C153.328 182.959 140.781 194.216 153.218 194.902C165.669 195.592 166.949 202.505 166.949 202.505C166.949 202.505 171.845 205.749 163.244 205.983C154.639 206.218 157.482 206.217 158.59 211.113C159.704 216.038 156.299 222.654 152.545 227.172C148.771 231.715 146.908 240.882 149.868 242.336C152.835 243.794 151.51 249.655 157.662 255.064C163.854 260.51 169.078 260.259 170.109 263.742C170.496 265.052 171.255 265.414 172.328 265.344L171.969 265.34C171.969 265.34 171.845 272.889 175.26 275.411C178.686 277.941 180.432 281.115 173.162 281.752C173.162 281.752 178.275 284.302 182.574 285.966C186.883 287.629 182.029 291.1 184.378 292.517C186.728 293.938 190.368 298.99 192.986 297.819C195.605 296.653 193.869 295.618 190.882 292.644C187.904 289.683 192.727 289.19 186.435 281.51C180.2 273.895 179.279 271.628 181.256 268.991C181.256 268.991 185.124 268.991 185.776 272.384C186.431 275.788 194.863 284.175 197.616 286.093C200.376 288.015 194.535 288.783 198.385 290.2C202.239 291.617 213.051 300.941 209.688 306.428C209.688 306.428 207 309.052 212.524 310.765C218.061 312.477 239.82 322.433 246.361 321.501C252.895 320.569 258.181 320.7 260.351 323.904C261.165 325.107 261.883 325.39 262.507 325.222L262.266 325.267C262.266 325.267 265.836 329.001 272.926 328.191C280.009 327.386 273.53 331.691 282.365 330.077C282.365 330.077 285.222 336.837 289.303 337.379C289.303 337.379 287.251 340.919 291.484 340.919C295.713 340.919 294.213 346.941 300.906 346.39C307.599 345.84 306.198 351.619 310.21 349.413C314.212 347.212 321.823 341.096 321.688 349.914C321.688 349.914 325.684 355.212 318.891 361.89C312.046 368.618 298.608 376.89 300.433 380.303C302.265 383.732 303.704 383.087 298.277 387.601C292.822 392.14 300.305 395.614 302.01 398.444C303.721 401.286 314.337 421.424 313.971 424.335C313.605 427.26 336.955 432.677 336.306 439.955C335.651 447.29 330.748 465.883 322.158 484.131C313.398 502.737 321.116 502.006 305.981 517.74C305.981 517.74 301.503 536.51 298.242 541.069C294.968 545.648 291.273 552.047 294.999 551.279C298.722 550.511 300.94 539.04 305.101 540.564C305.101 540.564 296.552 564.709 291.815 569.925C287.05 575.166 280.247 590.798 282.91 598.031C285.595 605.317 279.053 613.749 287.033 618.402C295.048 623.076 293.088 627.495 306.336 628.329C319.594 629.163 321.668 627.22 327.591 626.115C333.508 625.01 311.611 625.561 310.631 609.391C309.669 593.472 310.328 593.472 316.438 592.671C322.541 591.87 317.818 589.2 321.495 585.742C325.159 582.296 333.353 580.707 334.136 575.174C334.916 569.671 324.214 572.55 326.374 565.239C328.516 557.982 338.901 559.53 338.901 559.53L339.528 551.542C339.528 551.542 348.574 551.542 349.699 547.443C350.82 543.365 343.775 546.42 343.147 543.11C342.523 539.808 343.755 535.253 349.958 539.553C356.188 543.87 359.297 532.731 359.297 532.731C359.297 532.731 359.673 527.458 371.707 527.959C383.747 528.46 390.009 521.966 391.83 515.268C393.642 508.614 386.083 517.247 387.142 509.6C388.194 502.01 391.896 511.321 400.445 507.636C408.963 503.965 418.761 496.178 419.824 493.516C420.886 490.863 432.668 483.696 436.522 479.026C440.355 474.377 436.173 469.415 442.473 464.717C448.742 460.039 464.098 456.084 469.29 456.314C474.486 456.548 484.794 443.853 486.412 438.591C488.02 433.363 490.97 422.549 496.134 417.633C501.271 412.745 514.468 407.882 514.492 397.795C514.526 387.811 511.57 392.567 505.26 390.833ZM399.362 217.274C399.479 217.418 399.583 217.566 399.655 217.713C399.579 217.566 399.476 217.418 399.362 217.274ZM398.244 216.35C397.882 216.144 397.461 215.956 396.95 215.787C397.464 215.956 397.882 216.149 398.244 216.35ZM177.865 264.009C178.558 263.874 179.276 263.767 180.038 263.73C179.279 263.767 178.558 263.878 177.865 264.009ZM173.749 265.069C173.994 265.007 174.256 264.933 174.522 264.859C174.263 264.933 173.987 265.007 173.749 265.069ZM175.809 264.502C176.24 264.383 176.688 264.276 177.158 264.169C176.695 264.272 176.236 264.383 175.809 264.502ZM263.187 324.832C263.256 324.774 263.321 324.704 263.39 324.643C263.321 324.709 263.256 324.774 263.187 324.832ZM263.991 323.961C263.925 324.047 263.86 324.129 263.791 324.216C263.86 324.129 263.929 324.047 263.991 323.961ZM280.644 314.055C280.834 313.981 281.144 313.812 281.499 313.607C281.141 313.812 280.834 313.977 280.644 314.055ZM281.7 313.488C282.065 313.27 282.49 313.007 282.962 312.699C282.49 313.007 282.069 313.27 281.7 313.488ZM283.231 312.523C283.718 312.202 284.239 311.853 284.787 311.471C284.239 311.853 283.721 312.202 283.231 312.523ZM286.598 310.173C286.015 310.601 285.432 311.024 284.867 311.418C285.429 311.024 286.015 310.601 286.598 310.173Z" fill="white" fill-opacity="0.08"/>
<path d="M601.035 92.5156C600.135 91.5093 606.176 90.31 604.071 84.1205C601.988 77.9845 605.914 74.6413 605.617 74.0539C605.32 73.4666 602.07 67.0307 606.279 66.6406C610.485 66.2545 610.274 64.895 610.516 61.9954C610.757 59.1081 615.939 59.8761 615.715 58.147C615.491 56.422 611.817 54.1261 613.611 51.8426C615.401 49.5631 619.396 47.6697 615.418 45.4025C611.451 43.1436 613.973 43.5174 608.149 40.704C602.346 37.8988 616.115 35.6604 618.068 35.6604C620.021 35.6604 622.146 36.9624 622.429 33.2454C622.712 29.5449 618.306 33.2413 616.86 27.6104C615.425 22.0206 609.933 27.3352 610.626 22.9365C611.316 18.5624 611.861 15.8435 614.77 14.7551C617.675 13.6708 618.996 9.89218 619.924 5.59611C619.924 5.59611 625.917 3.99024 627.052 1.32471H452.123C452.178 4.16685 450.474 6.48737 448.632 7.91665C446.786 9.35004 445.578 12.2251 445.578 12.2251C435.028 11.8637 418.92 15.4738 417.519 21.8358C416.105 28.2552 437.233 31.5779 429.591 31.7627C421.949 31.9475 420.956 32.1324 419.883 34.1736C418.803 36.219 427.907 38.2684 427.907 38.2684C426.683 42.5768 437.957 45.2095 437.957 45.2095C439.51 40.6999 451.854 44.4538 461.052 44.8317C470.253 45.2095 481.079 67.9959 476.78 73.4625C472.45 78.9661 472.595 79.3645 475.283 82.1327C477.981 84.9133 480.799 73.4625 482.573 78.4198C484.36 83.41 493.526 89.7021 487.692 89.1025C481.865 88.5029 472.75 84.1165 474.896 86.9052C477.049 89.7022 484.232 92.1089 488.127 92.5114C492.026 92.9139 488.734 101.001 482.99 101.609C477.239 102.221 476.825 104.665 474.972 112.468C473.099 120.35 486.961 141.481 488.465 144.919C489.976 148.369 500.892 144.06 499.757 147.075C498.619 150.102 506.978 151.543 506.978 151.543C506.978 151.543 513.395 152.274 515.382 142.988C517.349 133.813 517.397 135.895 522.127 133.579C526.843 131.271 519.902 127.611 526.46 124.079C532.987 120.563 541.136 119.939 546.974 116.197C552.78 112.476 561.25 108.562 560.315 105.083C559.38 101.617 572.504 106.311 580.908 102.229C589.271 98.1628 601.936 93.5177 601.035 92.5156Z" fill="white" fill-opacity="0.08"/>
<path d="M1558.74 533.15C1550.89 527.65 1566.16 545.414 1550.3 552.79C1550.3 552.79 1539.98 553.977 1540.54 560.815C1541.1 567.703 1546.34 570.414 1550.92 570.114C1555.49 569.814 1556.99 574.34 1563.63 567.707C1570.22 561.115 1560.61 555.164 1565.95 552.79C1571.27 550.424 1576.89 541.019 1573.28 537.803C1569.69 534.599 1566.63 538.678 1558.74 533.15Z" fill="white" fill-opacity="0.08"/>
<path d="M1582.73 514.751C1581.17 517.03 1574.95 517.03 1572.24 513.329C1569.54 509.641 1566.98 507.095 1566.99 508.791C1566.99 510.491 1560.07 508.721 1559.66 505.403C1559.25 502.092 1547.75 496.141 1548.1 498.659C1548.45 501.181 1549.18 500.338 1558.37 507.378C1567.62 514.467 1568 517.888 1566.14 520.464C1564.28 523.043 1560.94 524.48 1568.99 527.072C1577.06 529.672 1574.84 535.882 1575.98 536.346C1591.73 542.774 1578.18 522.755 1583.09 523.905C1588 525.055 1590.13 520.747 1589.21 517.005C1588.28 513.28 1584.28 512.475 1582.73 514.751Z" fill="white" fill-opacity="0.08"/>
</g>
<path d="M1445.61 114.346C1435.64 109.081 1428.43 110.112 1428.43 110.112C1428.43 110.112 1437.1 118.815 1424.26 109.393C1411.57 100.082 1386.99 92.8004 1386.99 92.8004C1386.99 92.8004 1373.32 93.3056 1370.66 91.2931C1367.99 89.2847 1354.43 88.7836 1360.14 93.0016C1365.88 97.2443 1365.69 99.1706 1360.21 98.764C1354.74 98.3574 1353.74 94.3118 1353.74 94.3118C1353.74 94.3118 1359.92 90.8906 1353.57 89.8843C1347.22 88.8822 1348.86 92.899 1348.86 92.899C1336.96 89.5845 1330.03 92.4965 1330.03 92.4965C1330.03 92.4965 1321.06 97.0389 1318.9 89.7857C1316.76 82.5982 1306.18 83.6908 1306.18 83.6908C1306.18 83.6908 1285.6 85.7813 1285.28 82.6968C1284.97 79.6247 1273.24 78.4378 1273.24 78.4378C1277.08 73.7104 1271.53 73.7104 1271.53 73.7104C1271.53 73.7104 1265.33 73.7104 1260.12 72.3387C1254.91 70.9669 1242.72 70.0879 1237.86 70.5274C1233 70.9668 1232.22 71.9197 1233.46 75.6038C1234.7 79.3044 1232.76 79.7479 1227.8 79.6C1222.84 79.4522 1220.2 75.8995 1217.78 78.6349C1215.35 81.3825 1213.81 80.4174 1213.81 80.4174C1213.81 80.4174 1204.24 73.0985 1205.2 79.2304C1206.16 85.4117 1204.19 85.0379 1203.49 85.5595C1202.8 86.0811 1189.37 80.4913 1191.22 77.3042C1193.06 74.1294 1193.4 73.2463 1191.99 69.0652C1190.58 64.9047 1187.98 67.5292 1176.98 63.381C1166.05 59.2533 1165.99 62.3665 1165.99 62.3665C1166.82 66.4367 1168.26 69.287 1157.29 68.482C1146.34 67.677 1147.65 63.2372 1147.65 63.2372C1139 63.5986 1128.78 62.6581 1128.78 62.6581C1128.78 62.6581 1119.86 60.124 1116.73 63.0195C1113.59 65.9274 1102.32 65.6358 1102.32 65.6358C1102.32 65.6358 1104.48 61.6395 1115.04 56.0127C1125.51 50.427 1125.3 48.7185 1125.6 44.0363C1125.91 39.3829 1112.87 36.1588 1112.87 36.1588L1100.12 35.7399C1100.12 35.7399 1100.68 39.3829 1096.1 38.2617C1091.52 37.1404 1098.14 33.0867 1098.14 33.0867C1091.31 31.4849 1087 33.7849 1087 33.7849C1086.39 31.2795 1091.29 29.4765 1091.29 29.4765C1091.29 29.4765 1091.33 25.3283 1082.26 26.5029C1073.18 27.6776 1074.16 32.8813 1075.07 35.7399C1075.99 38.6108 1072.91 37.699 1072.91 37.699C1066.24 37.7688 1063.46 40.7917 1063.46 40.7917C1063.46 40.7917 1065.79 43.6831 1059.85 43.8967C1053.9 44.1103 1055.8 40.7917 1055.8 40.7917C1045.77 41.4242 1046.87 44.3197 1046.87 44.3197C1038.23 44.8865 1016.74 52.9283 1021.97 56.8054C1027.22 60.7031 1023.34 60.124 1021.04 62.0051C1018.73 63.8902 1008.51 61.8613 1003.46 63.4549C998.399 65.0526 1002.92 67.8249 1002.92 67.8249L1004.07 73.4722C1004.07 73.4722 1009.45 72.811 1010.35 76.3472C1011.26 79.8999 1005.31 77.604 1000.87 74.7249C996.439 71.854 986.286 72.5152 989.187 73.0327C992.089 73.5461 994.183 76.4252 992.389 77.3863C990.591 78.3474 990.567 78.1995 993.082 81.3908C995.611 84.5943 987.955 81.6126 987.955 81.6126C987.955 81.6126 983.384 84.4465 983.481 76.9386C983.577 69.5088 977.85 68.8147 977.85 68.8147C982.077 71.4885 980.024 73.8418 980.158 74.6509C980.293 75.4641 972.772 77.4561 976.467 80.5734C980.179 83.699 979.455 91.3506 979.455 91.3506C979.455 91.3506 980.345 97.0513 985.478 96.0368C990.605 95.0265 995.732 97.8604 995.732 97.8604C995.732 97.8604 1003.99 107.04 999.955 106.834C995.915 106.629 991.523 98.4683 991.523 98.4683C991.523 98.4683 979.779 97.6591 984.064 101.516C988.369 105.397 986.406 105.602 981.673 111.356C976.905 117.156 968.591 115.496 968.463 114.667C968.335 113.837 976.757 109.915 978.402 105.598C980.038 101.31 975.829 97.8563 975.829 97.8563L973.493 81.2142C973.493 81.2142 967.231 81.017 970.43 78.4418C973.617 75.879 971.82 70.7738 971.82 70.7738C962.75 66.872 957.699 69.9935 957.699 69.9935C957.275 80.2203 949.195 76.4704 947.828 80.6186C946.452 84.7915 952.072 84.9927 952.072 84.9927C951.296 90.9974 948.684 86.5904 956.422 94.4186C964.244 102.333 952.648 98.0616 944.513 94.4186C936.416 90.7961 932.031 92.6033 928.902 91.3958C925.776 90.1883 920.756 86.9847 920.239 88.1101C919.718 89.2354 923.72 92.2008 926.925 94.012C930.137 95.8315 928.191 101.31 925.918 101.717C923.641 102.124 921.015 97.0431 921.015 97.0431C921.015 97.0431 921.622 99.2732 914.346 99.4786C907.067 99.6798 909.723 102.534 906.087 102.736C902.451 102.941 903.234 98.0575 903.234 98.0575C894.74 99.2733 879.687 104.982 878.218 107.032C876.741 109.085 875.216 114.248 871.194 110.527C867.192 106.826 873.415 105.594 873.415 105.594C873.415 105.594 872.211 103.343 869.382 101.508C866.564 99.6757 860.688 100.896 860.688 100.896C862.103 101.914 864.345 104.773 866.16 110.317C867.989 115.903 864.138 117.981 862.317 116.318C860.499 114.659 863.766 113.624 853.285 116.733C842.762 119.854 856.911 124.253 850.611 125.723C844.301 127.198 836.973 118.815 835.852 122.158C834.724 125.514 841.213 126.565 841.213 126.565C837.049 135.034 825.667 120.901 825.667 120.901C825.667 120.901 831.836 117.357 827.444 116.942C823.056 116.527 817.632 109.496 817.632 109.496C833.019 114.868 843.287 117.776 851.622 112.589C859.898 107.438 830.101 95.4208 830.101 95.4208C830.101 95.4208 820.913 96.8377 806.689 90.5867C792.585 84.389 774.38 91.7942 774.38 91.7942C774.38 91.7942 744.41 103.754 740.332 113.599C738.269 118.581 728.467 129.678 722.74 131.584C716.999 133.494 710.465 136.287 708.888 147.397C707.287 158.667 712.314 159.985 716.458 159.903C720.601 159.821 723.199 158.584 726.056 156.202C728.905 153.828 732.255 154.399 732.255 154.399C731.603 158.995 738.876 166.77 738.876 166.77C738.876 166.77 735.895 172.524 741.505 172.61C747.118 172.692 745.148 171.189 747.873 169.604C750.592 168.019 755.795 167.936 755.795 167.936L756.281 156.531C758.996 156.695 763.743 154.892 763.536 150.81C763.329 146.748 757.809 146.666 757.809 146.666C757.954 139.568 760.321 135.884 760.321 135.884L774.4 128.331C774.231 117.176 782.177 117.488 782.177 117.488C782.177 117.488 790.208 116.708 789.046 122.811C787.873 128.964 773.648 133.572 773.648 133.572C773.648 133.572 773.503 142.788 774.086 145.614C774.673 148.452 781.269 149.832 788.331 149.426C795.387 149.019 798.709 145.454 804.381 148.855C810.077 152.276 790.774 151.705 791.288 151.705C791.802 151.705 779.762 150.945 780.041 154.646C780.324 158.367 783.94 158.145 783.94 158.145C783.94 158.145 787.555 158.034 787.334 161.661C787.114 165.304 783.298 165.193 783.298 165.193C783.298 165.193 783.533 161.661 778.175 161.661C772.817 161.661 772.565 165.415 772.565 165.415L773.089 172.639C767.552 174.093 768.484 176.894 767.621 177.342C766.759 177.789 760.204 172.191 757.123 175.547C754.028 178.915 745.648 179.593 745.648 179.593C745.648 179.593 742.84 177.568 734.463 178.019C726.08 178.467 727.318 174.319 728.377 170.746C729.43 167.189 729.098 161.665 729.098 161.665C724.941 163.209 715.209 167.3 719.859 170.746C724.531 174.208 722.409 179.145 722.409 179.145C722.409 179.145 720.756 178.188 713.035 181.231C705.283 184.283 703.341 189.684 703.341 189.684C703.341 189.684 699.684 187.975 693.387 193.914C687.043 199.898 679.463 198.974 679.463 198.974C680.081 201.746 673.177 201.516 673.177 201.516C673.177 201.516 664.521 200.937 664.225 203.718C663.928 206.507 668.734 206.277 668.734 206.277C679.577 206.162 680.754 213.645 680.595 218.594C680.433 223.572 675.961 223.099 675.961 223.099C675.961 223.099 669.3 223.576 657.294 222.98C645.298 222.385 647.73 227.391 647.73 227.391L647.395 237.249C643.366 238.095 643.845 242.588 643.845 242.588L647.668 242.465L647.42 247.258C658.18 246.313 659.905 252.026 659.916 252.059C659.298 251.821 658.884 251.644 658.884 251.644C658.453 255.156 651.984 258.314 651.984 258.314C651.984 258.314 644.29 258.129 641.037 267.292C637.746 276.558 642.81 270.307 628.162 278.653C613.368 287.08 604.912 300.856 604.912 300.856C604.912 300.856 615.373 306.745 607.889 316.249C600.324 325.86 603.787 329.29 603.787 329.29C603.787 329.29 637.363 360.565 648.886 357.641C660.371 354.721 670.793 356.179 673.122 356.179C675.451 356.179 676.155 352.437 691.29 351.398C706.408 350.363 708.333 357.641 708.333 357.641C717.627 361.198 729.623 350.363 724.331 363.716C718.955 377.269 724.248 379.836 724.248 379.836C744.41 395.817 741.763 403.473 741.763 403.473C747.511 412.525 741.222 416.751 741.222 416.751C731.572 428.42 737.068 449.428 745.065 454.056C753.104 458.71 750.771 473.286 750.771 473.286C758.906 478.038 769.177 494.853 769.177 494.853C768.791 508.028 777.588 505.576 777.588 505.576C777.588 505.576 788.262 503.375 805.913 503.128C823.559 502.882 839.716 476.132 839.716 476.132C839.716 476.132 838.888 466.912 848.855 462.92C858.777 458.944 847.772 445.279 847.772 445.279C847.772 445.279 848.772 436.81 868.451 431.134C888.009 425.491 867.951 407.88 866.191 400.187C864.445 392.556 862.527 382.411 895.399 363.72C927.594 345.41 915.461 331.725 915.461 331.725C915.461 331.725 902.475 337.011 884.635 337.216C884.635 337.216 875.848 324.862 860.364 320.447C860.364 320.447 860.933 312.68 849.641 309.51C849.641 309.51 852.795 301.837 842.748 294.818C842.748 294.818 825.229 267.547 815.01 267.674C801.455 267.843 782.239 263.173 782.239 263.173C782.239 263.173 770.847 259.624 772.13 267.489C773.424 275.424 751.375 266.36 751.375 266.36C751.375 266.36 748.57 261.678 738.648 261.678C728.726 261.678 727.629 259.439 727.629 259.439C727.629 259.439 728.46 257.394 730.737 251.467C732.997 245.586 721.112 247.603 721.112 247.603C677.897 248.523 688.178 252.576 677.711 254.055C669.337 255.238 662.403 253.02 659.926 252.071C659.96 252.055 669.099 247.603 675.068 248.58C681.054 249.562 685.635 242.596 684.8 240.046C683.969 237.503 687.874 233.881 691.317 233.519C694.757 233.158 699.522 229.917 699.522 229.917L699.632 224.66C705.228 223.231 712.024 225.137 713.284 225.137C719.973 225.137 727.329 218.729 728.039 220.976C728.75 223.231 734.677 229.437 744.616 233.277C754.601 237.138 754.097 240.407 751.758 241.988C749.412 243.569 737.599 244.3 737.599 244.3L750.93 249.685C750.93 249.685 750.15 244.789 752.879 244.789C755.608 244.789 760.6 238.587 760.6 238.587C760.6 238.587 754.415 236.653 757.475 235.446C760.531 234.238 764.382 237.257 764.382 237.257C764.288 232.312 753.621 230.874 753.621 230.874L754.497 228.718C754.497 228.718 752.89 229.794 750.178 229.199C747.47 228.599 740.953 221.691 739.148 218.491C737.351 215.308 748.436 216.13 748.436 216.13C749.757 223.112 767.286 228.718 767.286 228.718C767.007 232.677 769.246 236.049 769.246 236.049C778.451 241.865 778.033 246.621 778.033 246.621C788.052 252.264 786.365 245.155 786.365 245.155C789.67 246.009 794.924 245.397 794.924 245.397C792.389 245.763 778.823 235.565 785.382 237.014C791.951 238.468 788.89 233.638 788.89 233.638C797.039 234.119 798.595 236.895 798.595 236.895C802.57 249.808 811.233 251.652 814.5 251.283C817.767 250.913 820.134 247.266 820.134 247.266C820.134 247.266 821.838 251.899 829.276 251.036C836.711 250.174 838.967 248.334 838.967 248.334C838.967 248.334 846.278 253.989 841.148 256.708C836 259.435 838.722 264.795 834.079 267.173C829.421 269.559 818.691 268.59 818.691 268.59C825.126 271.017 832.761 281.236 832.761 281.236C835.076 278.345 838.208 280.312 838.208 280.312C838.208 280.312 851.108 289.528 849.041 292.104C849.041 292.104 857.459 294.691 857.687 303.016C857.687 303.016 867.406 306.947 872.681 316.188C878.007 325.532 878.87 330.994 879.28 331.368C879.691 331.742 891.014 330.107 905.452 325.265C919.811 320.447 917.655 318.052 934.974 316.722C934.974 316.722 951.099 306.158 950.175 298.843C949.257 291.59 933.487 291.073 933.487 291.073L932.048 285.162C932.048 285.162 932.234 292.104 912.928 292.362C912.928 292.362 907.001 284.394 898.976 278.529C891.01 272.705 905.832 272.96 905.832 272.96C905.832 272.96 914.101 284.649 923.071 284.908C932.045 285.162 932.428 282.099 932.428 282.099C932.428 282.099 937.848 286.961 943.506 287.475C949.167 287.988 978.734 288.502 978.734 288.502C978.734 288.502 989.667 294.178 989.601 296.248C989.536 298.326 997.733 295.471 997.733 295.471C997.733 295.471 999.42 299.106 991.947 299.369C991.947 299.369 1002.73 308.269 1007.06 299.891C1007.06 299.891 1009.54 313.017 1012.62 318.057C1015.72 323.125 1036.26 345.077 1036.26 345.077C1036.26 345.077 1042.33 346.724 1048.28 334.711C1054.15 322.858 1035.96 323.396 1058.82 313.28C1081.42 303.283 1074.23 301.193 1074.23 301.193C1074.23 301.193 1085.89 304.852 1091.42 298.847C1091.42 298.847 1096.08 306.688 1105.76 309.584C1115.47 312.487 1109.72 319.12 1109.72 319.12C1109.72 319.12 1114.85 323.19 1122.22 317.256C1124.35 315.543 1127.18 319.453 1129.42 324.262C1131.67 329.101 1132.25 340.49 1133.96 342.95C1135.68 345.418 1143.78 351.616 1143.78 351.616C1146.68 356.606 1149.31 359.112 1149.31 359.112C1162.45 371.326 1169.93 367.096 1166.93 365.617C1163.94 364.143 1162.19 359.321 1159.24 354.314C1156.3 349.337 1145.28 348.096 1145.28 348.096C1144.36 344.182 1137.96 341.512 1137.96 341.512C1136.55 335.385 1140.07 329.503 1140.07 329.503C1157.88 333.15 1145.42 336.403 1156.27 337.22C1167.13 338.038 1164.55 345.151 1164.55 345.151C1181.62 338.325 1181.31 333.758 1181.31 333.758C1182.83 324.061 1175.26 321.252 1175.26 321.252C1175.26 321.252 1165.3 320.25 1161.33 312.286C1157.4 304.392 1168.86 301.649 1168.86 301.649C1210.07 300.671 1215.93 286.51 1220.11 278.661C1224.25 270.882 1218.79 265.424 1218.79 265.424C1218.79 265.424 1214.81 265.05 1213.19 261.308C1211.57 257.583 1206.28 254.429 1206.28 254.429C1205.32 248.157 1217.82 252.58 1216.64 248.523C1215.47 244.489 1208.1 244.489 1208.1 244.489C1204.31 246.506 1202.56 246.136 1202.56 246.136C1191.84 241.931 1195.47 243.208 1204.08 236.115C1212.61 229.079 1210.92 241.019 1210.92 241.019C1211.37 239.746 1227.53 232.862 1225.78 239.746C1224.03 246.687 1233.53 245.586 1233.53 245.586C1234.9 260.187 1234.61 258.322 1243.77 254.983C1252.89 251.656 1246.76 246.872 1240 241.75C1233.29 236.657 1238.73 239.384 1244.53 230.878C1250.26 222.463 1256.37 227.285 1256.37 227.285C1276.79 214.836 1279.5 202.227 1279.5 202.227L1276.27 190.324C1276.27 190.324 1278.4 184.184 1272.56 180.118C1266.75 176.073 1268.92 179.441 1262.69 179.613C1256.46 179.781 1248.63 175.066 1248.63 175.066L1273.72 153.036C1273.72 153.036 1291.84 156.145 1295.46 154.017C1299.08 151.894 1308.7 153.529 1308.7 153.529C1308.7 153.529 1301.87 155.328 1316.19 155.656C1330.52 155.985 1321.1 152.223 1321.1 152.223C1321.71 140.883 1339.32 138.151 1339.23 140.562C1339.15 142.977 1336.61 147.019 1341.17 146.859C1345.73 146.694 1354.57 136.073 1354.9 140.082C1355.23 144.107 1349.71 146.374 1342.54 154.35C1335.29 162.408 1328.83 161.09 1330.03 167.719C1331.25 174.405 1342.59 189.823 1343.36 192.567C1344.14 195.319 1352.55 195.836 1351.3 189.142C1350.05 182.5 1354.89 182.784 1354.89 182.784C1351.95 177.038 1360.62 175.132 1360.62 175.132C1360.62 175.132 1354 173.341 1357.64 169.329C1361.26 165.337 1360.81 161.143 1358.26 161.254C1355.72 161.365 1351.83 153.697 1358.13 150.543C1364.41 147.401 1368.22 150.867 1368.22 150.867C1368.22 150.867 1370.41 147.401 1374.21 147.076C1378.02 146.752 1383.83 150.432 1383.83 150.432C1383.94 147.401 1398.04 135.17 1406.1 136.127C1414.17 137.088 1416.53 144.805 1415.24 137.195C1413.96 129.654 1404.12 125.333 1404.12 125.333C1408.89 124.282 1413.38 124.491 1413.79 121.246C1414.21 118.014 1406.78 114.482 1411.36 115C1415.96 115.517 1417.03 120.199 1418.55 120.199C1420.06 120.199 1418.29 116.244 1432.28 123.756C1446.4 131.346 1438.25 124.282 1442.63 119.887C1446.98 115.488 1455.65 119.649 1445.61 114.346Z" fill="white" fill-opacity="0.08"/>
<path d="M666.97 170.018C665.5 173.866 667.77 175.883 667.77 175.883C676.437 174.877 674.46 178.836 674.46 178.836C674.46 178.836 676.999 181.115 674.108 181.284C671.213 181.452 669.592 182.639 670.272 185.358C670.955 188.085 666.056 185.531 666.232 187.572C666.411 189.621 670.834 191.162 670.04 191.162C669.247 191.162 661.322 197.183 661.322 197.183C669.416 193.564 689.257 193.392 689.257 193.392C694.749 193.207 692.465 192.016 692.465 192.016L690.927 190.303C692.59 187.227 693.987 183.995 693.987 183.995H687.939C688.025 180.943 686.28 177.904 682.923 176.47C679.569 175.041 678.686 170.351 678.686 170.351C678.686 170.351 673.163 171.69 675.098 168.683C677.027 165.689 680.787 162.046 678.462 161.882C676.133 161.717 666.922 165.028 670.958 161.549C674.974 158.091 672.718 156.284 672.718 156.284C663.634 157.269 664.52 160.559 662.768 165.028C661.001 169.517 668.433 166.186 666.97 170.018Z" fill="white" fill-opacity="0.08"/>
<path d="M649.009 184.505C645.59 189.277 642.73 188.595 646.601 190.817C650.482 193.047 647.974 189.105 654.608 188.25C661.236 187.396 659.469 180.094 659.469 180.094C664.068 176.89 663.326 175.88 660.07 174.031C656.82 172.187 651.976 172.857 652.38 175.543C652.783 178.237 655.35 178.574 650.096 178.833C644.841 179.087 643.482 179.925 645.117 182.467C646.76 185.014 652.407 179.757 649.009 184.505Z" fill="white" fill-opacity="0.08"/>
<path d="M624.406 127.144C628.687 123.834 627.935 127.461 629.953 123.834C631.961 120.224 632.596 114.453 622.998 115.074C613.39 115.698 618.637 115.542 612.676 116.474C606.707 117.41 605.717 120.224 602.795 118.971C599.876 117.723 604.306 116.006 599.003 113.365C599.003 113.365 592.735 113.209 597.879 117.567C597.879 117.567 592.493 115.854 590.454 118.815C588.408 121.793 599.069 118.347 599.072 121.164C599.079 123.99 593.273 123.834 593.273 123.834C593.273 123.834 602.954 126.04 597.706 128.093C592.445 130.151 597.299 129.835 600.601 129.835C603.902 129.835 606.017 131.9 610.571 132.217C615.118 132.533 620.103 130.467 624.406 127.144Z" fill="white" fill-opacity="0.08"/>
<path d="M1051.07 340.06C1051.07 340.06 1047.57 341.493 1048.46 346.426C1049.34 351.387 1053.45 351.597 1055.7 351.182C1057.94 350.767 1058.71 348.631 1057.59 345.674C1056.46 342.721 1051.07 340.06 1051.07 340.06Z" fill="white" fill-opacity="0.08"/>
<path d="M1177.89 381.536C1177.89 381.536 1164.02 377.014 1162.2 372.13C1160.39 367.272 1128.55 353.669 1120.9 353.254C1120.9 353.254 1141.69 364.512 1145.12 370.032C1149.81 377.581 1167.29 391.454 1173.47 391.241C1179.65 391.023 1182.18 394.062 1177.89 381.536Z" fill="white" fill-opacity="0.08"/>
<path d="M1221.38 401.596C1227.77 400.938 1229.68 400.281 1229.08 400.281C1228.49 400.281 1221.45 399.078 1214.7 396.675C1207.96 394.281 1205.76 394.934 1201.05 395.152C1196.34 395.369 1192.17 394.174 1189.85 392.65C1187.54 391.131 1179.09 392.001 1181.39 394.281C1181.39 394.281 1187.3 399.078 1198.67 399.189C1210.02 399.296 1214.98 402.253 1221.38 401.596Z" fill="white" fill-opacity="0.08"/>
<path d="M1191.62 373.426C1197.17 375.553 1197.69 381.537 1197.69 381.537C1203.14 380.358 1202.03 381.217 1209.82 382.182C1217.61 383.147 1215.15 384.975 1221.89 385.299C1228.64 385.624 1226.55 377.471 1226.55 377.471C1232.11 376.296 1230.55 369.076 1230.55 369.076C1237.48 370.768 1238.42 366.858 1234.89 367.068C1231.36 367.277 1224.6 362.439 1225.02 360.237C1225.43 358.04 1232.89 357.625 1231.58 357.625C1230.27 357.625 1229.33 356.373 1229.33 356.373C1232.1 354.812 1231.11 353.875 1231.11 353.875C1227.21 353.461 1224.83 351.177 1222.77 350.557C1220.71 349.937 1218.28 349.522 1217.84 350.557C1217.4 351.592 1214.84 356.06 1211.46 355.958C1208.08 355.855 1209.68 356.377 1208.04 356.792C1206.41 357.211 1210.49 359.925 1206.31 360.135C1202.13 360.344 1203.06 361.079 1199.97 364.332C1196.87 367.597 1196.08 364.542 1191.5 365.067C1186.92 365.597 1186.08 371.302 1191.62 373.426Z" fill="white" fill-opacity="0.08"/>
<path d="M1240 383.146C1242.87 383.359 1242.53 383.737 1243.88 387.725C1245.24 391.729 1246.91 391.619 1246.91 391.619C1249.65 391.565 1248.72 389.885 1248.72 389.885C1247.39 385.996 1245.63 381.913 1248.48 382.554C1251.32 383.199 1252.73 386.534 1257.58 389.721C1262.45 392.921 1261.5 389.179 1261.19 387.885C1260.89 386.591 1259.39 386.267 1259.39 386.267C1255.6 386.214 1258.5 382.718 1255.88 382.612C1253.27 382.505 1251.9 379.289 1251.9 379.289C1251.9 379.289 1250.25 377.153 1253.67 376.513C1257.09 375.872 1258.67 374.221 1258.67 374.221C1254.03 372.681 1250.64 374.701 1248.19 374.594C1245.73 374.488 1243.71 379.022 1243.45 374.221C1243.18 369.448 1249.69 371.407 1255.03 371.354C1260.38 371.301 1261.52 370.454 1264.09 368.709C1266.64 366.968 1262.98 364.491 1262.21 366.335C1261.44 368.183 1259.19 368.499 1254.91 368.923C1250.64 369.346 1252.65 368.446 1246.56 367.92C1240.48 367.391 1240.41 371.042 1240.88 372.952C1241.35 374.866 1239.77 373.165 1240.44 375.293C1241.12 377.424 1241.58 378.546 1239.75 380.418C1237.91 382.287 1237.13 382.932 1240 383.146Z" fill="white" fill-opacity="0.08"/>
<path d="M1241.86 400.334C1237 400.827 1235.03 398.584 1230.88 401.923C1230.88 401.923 1231.8 403.406 1235.42 403.242C1239.03 403.077 1241.64 401.981 1244.99 401.923C1248.34 401.87 1246.72 399.841 1241.86 400.334Z" fill="white" fill-opacity="0.08"/>
<path d="M1249.22 406.045C1252.22 406.045 1251.97 408.858 1253.48 408.361C1254.98 407.864 1257.46 407.642 1253.92 405.716C1250.38 403.79 1251.63 403.737 1248.66 404.065C1245.69 404.394 1245.74 403.24 1245.46 404.669C1245.46 404.669 1246.23 406.045 1249.22 406.045Z" fill="white" fill-opacity="0.08"/>
<path d="M1269.58 408.085C1271.06 408.031 1274.65 406.98 1275.4 404.725C1276.15 402.474 1280.83 404.397 1283.04 402.306C1283.04 402.306 1284.07 400.77 1279.1 400.881C1274.13 400.992 1274.44 402.031 1272.65 404.281C1270.85 406.536 1269.37 403.292 1266.57 410.348C1266.57 410.348 1268.1 408.142 1269.58 408.085Z" fill="white" fill-opacity="0.08"/>
<path d="M1342.19 380.897C1340.72 379.468 1334.67 380.182 1329.01 378.56C1323.37 376.938 1320.02 379.328 1318.01 381.611C1316 383.903 1312.27 383.328 1310.53 378.56C1308.81 373.816 1309.3 373.5 1301.11 373.64C1292.92 373.783 1285.47 375.056 1293.55 377.048C1301.64 379.04 1297.75 381.041 1301.8 382.043C1305.87 383.045 1306.46 386.774 1307.05 386.774C1307.65 386.774 1309.08 384.474 1309.08 384.474C1312.3 385.912 1317.24 388.355 1324.05 388.631C1330.86 388.906 1338.05 393.847 1339.16 397.186C1340.29 400.537 1329.55 395.732 1333.09 399.223C1336.64 402.73 1340.64 399.223 1344.32 399.514C1348 399.806 1351.77 403.901 1351.77 403.901C1351.77 403.901 1360.3 405.515 1360.94 402.73C1361.57 399.954 1362.79 395.44 1372.21 399.662C1381.68 403.901 1384.09 407.868 1391.57 407.573C1399.06 407.277 1405.24 410.518 1382.04 398.788C1359.14 387.201 1376.69 385.476 1342.19 380.897Z" fill="white" fill-opacity="0.08"/>
<path d="M1257.85 402.73C1261.98 402.216 1265.24 401.44 1271.64 400.877C1271.64 400.877 1267.34 399.444 1258.12 401.267C1258.12 401.267 1255.8 400.368 1250.59 400.343C1247.4 400.327 1250.26 401.267 1250.26 401.267C1250.26 401.267 1253.71 403.243 1257.85 402.73Z" fill="white" fill-opacity="0.08"/>
<path d="M1275.57 382.714C1272.93 382.287 1275.31 382.821 1272.66 383.359C1272.66 383.359 1274.43 385.314 1276.35 385.306C1278.27 385.298 1278.21 383.145 1275.57 382.714Z" fill="white" fill-opacity="0.08"/>
<path d="M1283.9 385.307C1285.62 384.649 1287.84 383.684 1292.25 384.543C1296.66 385.405 1298.16 384.518 1296.41 383.668C1294.67 382.822 1289.95 382.391 1281.84 381.963C1281.84 381.963 1282.17 385.964 1283.9 385.307Z" fill="white" fill-opacity="0.08"/>
<path d="M1272.88 368.021C1272.32 369.499 1277.1 368.867 1277.47 371.512C1277.85 374.165 1279.29 377.471 1280.18 374.592C1281.07 371.725 1283.53 372.091 1280.39 369.524C1277.26 366.965 1276.18 365.807 1278.51 363.384C1278.51 363.384 1273.45 366.546 1272.88 368.021Z" fill="white" fill-opacity="0.08"/>
<path d="M1312.2 395.148C1309.33 395.472 1317.7 397.448 1317.11 394.228C1316.52 391.02 1318.99 391.78 1314.8 389.829C1314.8 389.829 1315.07 394.823 1312.2 395.148Z" fill="white" fill-opacity="0.08"/>
<path d="M1302.66 396.047C1303.4 397.928 1301.51 398.314 1301.51 398.314C1301.51 398.314 1298.79 400.832 1302.99 400.051C1307.18 399.271 1301.93 394.17 1302.66 396.047Z" fill="white" fill-opacity="0.08"/>
<path d="M1418.37 458.467C1415.38 451.961 1410.11 453.501 1410.11 453.501C1410.11 453.501 1404.32 443.431 1397.27 442.515C1390.23 441.599 1383.94 434.978 1379.27 427.733C1374.63 420.542 1370.61 425.478 1369.37 421.885C1368.13 418.303 1359.72 407.867 1357.25 409.415C1354.78 410.964 1359.34 425.253 1359.44 431.803C1359.54 438.399 1342.97 430.67 1335.27 426.604C1327.6 422.558 1335.7 420.542 1335.29 416.521C1334.87 412.516 1325.02 413.629 1317.42 413.629C1309.82 413.629 1301.84 414.521 1300.99 420.739C1300.13 427.002 1294.56 424.357 1294.56 424.357C1294.56 424.357 1296.98 421.215 1288.83 420.767C1280.68 420.32 1281.28 425.257 1277.23 427.959C1273.18 430.67 1277.01 435.438 1274.12 431.803C1271.24 428.185 1268.02 430.67 1268.55 433.393C1269.09 436.12 1269.12 441.829 1263.14 442.289C1257.17 442.749 1244.97 445.045 1237.34 451.041C1229.65 457.075 1233.62 456.376 1236.36 463.149C1239.12 469.971 1235.82 468.086 1236.58 470.916C1237.34 473.754 1251.35 487.603 1254.46 492.909C1257.6 498.245 1253.45 499.949 1253.45 499.949C1254.93 506.549 1259.12 508.024 1268.34 507.777C1277.56 507.531 1271.92 500.68 1279.75 501.654C1287.6 502.631 1296.17 500.676 1296.17 500.676C1300.86 493.148 1312.55 496.54 1316.53 494.117C1320.49 491.698 1328.88 491.455 1333.98 491.455C1339.08 491.455 1353.01 499.214 1353.25 501.896C1353.49 504.586 1360.38 509.248 1358.65 506.303C1356.93 503.366 1365.27 497.271 1365.27 497.271C1369.37 498.245 1368.18 506.056 1368.18 506.056C1370.99 503.12 1372.64 509.987 1372.64 509.987C1375.74 510.726 1377.59 507.773 1381.11 515.421C1384.65 523.126 1398.63 524.875 1401.64 526.21C1404.66 527.545 1407.24 522.132 1407.24 522.132C1414.73 527.13 1420.12 526.128 1420.12 526.128C1422.88 518.645 1437.32 521.631 1437.32 521.631C1434.83 517.404 1433.15 504.097 1435.47 497.514C1437.77 490.975 1440.32 490.252 1435.62 475.889C1430.99 461.736 1418.37 458.467 1418.37 458.467Z" fill="white" fill-opacity="0.08"/>
<path d="M1424.41 538.215C1418.95 538.215 1413.11 536.19 1413.11 536.19C1413.97 540.499 1419.59 542.791 1419.59 542.791C1421.5 548.196 1423.89 550.459 1428.04 551.49C1432.2 552.516 1432.16 549.181 1434.2 545.855C1436.23 542.54 1431.11 537.209 1431.11 537.209C1431.11 537.209 1429.87 538.215 1424.41 538.215Z" fill="white" fill-opacity="0.08"/>
<path d="M1251.89 262.122C1251.89 262.122 1253.61 262.775 1255.75 262.122C1257.89 261.468 1252.89 263.994 1255.28 266.808C1257.67 269.634 1259.1 270.196 1260.87 268.783C1262.64 267.37 1266.86 265.847 1263.17 262.019C1259.48 258.207 1254.97 257.838 1251.89 262.122Z" fill="white" fill-opacity="0.08"/>
<path d="M1284.87 247.673C1281.3 248.039 1279.92 248.408 1278.27 250.893C1276.62 253.386 1267.73 253.476 1263.7 253.756C1259.68 254.035 1256.49 257.649 1256.49 257.649C1260.58 258.577 1261.54 258.208 1261.54 258.208C1267.31 254.31 1275.03 256.536 1275.03 256.536C1275.18 257.838 1274.8 258.393 1275.7 259.033C1281.69 263.309 1281.7 254.684 1281.7 254.684C1284.93 255.333 1284.49 256.076 1287.94 256.536C1291.39 257 1293.05 252.922 1293.05 252.922C1293.05 252.922 1294.08 255.978 1298.07 254.401C1302.07 252.827 1295.57 243.365 1295.57 243.365C1295.57 243.365 1300.38 241.085 1298.41 237.721C1296.45 234.37 1294.02 232.386 1291.04 232.386C1288.06 232.386 1288.39 234.189 1288.39 234.189C1290.13 238.539 1288.44 247.307 1284.87 247.673Z" fill="white" fill-opacity="0.08"/>
<path d="M1287.68 224.759C1284.21 224.94 1283.67 228.16 1291.66 229.417C1291.66 229.417 1285.47 227.084 1290.87 227.084C1296.27 227.084 1297.08 231.035 1301.12 229.417C1305.16 227.803 1298.68 225.474 1308.72 225.651C1308.72 225.651 1310.56 222.439 1304.68 221.014C1298.81 219.593 1293.5 218.529 1290.79 215.165C1290.79 215.165 1287.49 215.547 1290.64 222.451C1290.64 222.451 1291.16 224.579 1287.68 224.759Z" fill="white" fill-opacity="0.08"/>
<path d="M1290.07 213.05C1290.07 213.05 1288.8 210.643 1291.98 210.236C1295.16 209.83 1298.15 213.05 1298.15 213.05C1298.84 210.413 1289.21 207.258 1289.28 202.379C1289.36 197.529 1298.67 201.513 1298.67 201.513C1296.33 200.124 1290.26 195.631 1287.01 189.277C1283.78 182.977 1281.6 175.88 1280.76 177.564C1279.91 179.252 1279.48 178.069 1279.75 182.636C1280.02 187.228 1280.59 186.715 1282.53 190.99C1284.47 195.286 1282.58 195.631 1284.23 200.469C1285.89 205.34 1290.07 213.05 1290.07 213.05Z" fill="white" fill-opacity="0.08"/>
<path d="M1322.73 215.168C1324.28 214.992 1327.85 213.053 1327.85 213.053C1323.2 211.291 1321.19 215.345 1322.73 215.168Z" fill="white" fill-opacity="0.08"/>
<path d="M1313.19 219.238C1313.19 219.238 1318.98 218.885 1320.11 216.051C1321.23 213.225 1312.52 216.581 1313.19 219.238Z" fill="white" fill-opacity="0.08"/>
<path d="M1268.05 260.909C1268.01 259.513 1272.23 260.63 1273.33 260.63C1274.43 260.63 1274.57 258.141 1269.33 257.184C1268.31 256.999 1263.96 258.034 1264.24 260.215C1264.24 260.215 1266.99 263.222 1267.32 264.265C1267.65 265.304 1268.08 262.31 1268.05 260.909Z" fill="white" fill-opacity="0.08"/>
<path d="M1226.76 288.991C1224.71 286.872 1220.78 289.763 1219.24 293.246C1219.24 293.246 1221.35 299.669 1224.45 299.669C1227.56 299.669 1223.56 297.525 1225.08 294.995C1226.6 292.47 1228.82 291.114 1226.76 288.991Z" fill="white" fill-opacity="0.08"/>
<path d="M1183.35 306.335C1183.48 303.583 1182.37 306.927 1177.97 306.335C1177.97 306.335 1172.86 307.518 1172.63 309.888C1172.4 312.262 1176.34 313.256 1179.6 312.66C1182.86 312.065 1183.22 309.095 1183.35 306.335Z" fill="white" fill-opacity="0.08"/>
<path d="M1397.6 390.261C1404.09 385.394 1401.54 386.486 1399.41 383.936C1397.29 381.393 1387.36 380.896 1387.36 380.896C1401.54 386.486 1394.47 384.975 1392.85 388.63C1391.22 392.298 1380.39 388.63 1380.39 388.63C1389.13 395.559 1391.06 395.148 1397.6 390.261Z" fill="white" fill-opacity="0.08"/>
<path d="M912.977 417.857C911.904 422.334 908.143 427.279 898.514 427.957C888.875 428.634 889.937 430.442 891.614 435.662C893.301 440.911 895.216 442.287 891.676 447.343C888.116 452.427 889.096 449.421 890.865 455.91C892.649 462.444 897.876 465.73 897.876 465.73C911.635 467.377 912.483 453.59 915.178 443.437C917.844 433.395 920.587 427.509 919.58 420.543C918.576 413.627 914.046 413.401 912.977 417.857Z" fill="white" fill-opacity="0.08"/>
<path d="M894.545 79.0245C898.105 78.6302 901.8 82.3924 901.234 83.1892C900.665 83.986 904.177 85.9779 907.776 85.7766C911.371 85.5795 915.014 85.7766 915.014 85.7766C915.014 85.7766 904.295 81.2013 905.913 72.527C907.514 63.9513 926.14 47.8513 931.439 46.7177C936.728 45.5842 950.894 41.8138 952.357 38.8115C953.816 35.8215 952.581 33.961 945.246 33.7721C937.915 33.5872 939.264 38.6226 939.264 38.6226C939.264 38.6226 930.252 41.8097 927.648 40.6844C925.05 39.559 922.055 41.0581 920.675 42.7502C919.295 44.4465 914.603 42.7502 913.879 44.6354C913.151 46.5247 910.132 48.0402 908.707 49.5599C907.282 51.0795 903.405 50.8906 906.058 54.3242C906.058 54.3242 902.846 57.195 902.442 59.3102C902.038 61.4336 893.52 60.4684 895.994 62.3988C898.478 64.3332 899.085 65.1095 896.139 67.2493C893.182 69.3932 892.437 71.5454 894.718 71.5454C896.998 71.5454 893.12 74.8804 890.488 74.6833C887.852 74.4903 890.985 79.4229 894.545 79.0245Z" fill="white" fill-opacity="0.08"/>
<path d="M1260.15 341.628C1257.06 341.628 1256.9 344.503 1252.52 343.953C1248.15 343.406 1243.24 343.131 1244.61 349.177C1246 355.264 1244.31 348.105 1247.35 347.263C1250.39 346.421 1254.3 346.002 1254.19 347.522C1254.19 347.522 1252.58 351.243 1258.99 352.627C1265.41 354.011 1257.78 350.413 1259.29 348.072C1260.8 345.735 1261.65 347.916 1263.8 349.924C1265.95 351.941 1263.23 341.628 1260.15 341.628Z" fill="white" fill-opacity="0.08"/>
<path d="M1229 323.034C1234.58 325.547 1227.8 324.841 1232.87 327.059C1237.95 329.281 1237.03 324.644 1234.69 324.443C1232.35 324.241 1233.27 319.53 1234.78 318.832C1236.29 318.134 1237.54 318.532 1236.76 316.339C1235.98 314.15 1234.52 314.351 1234.52 314.351C1233.16 310.486 1226.41 310.979 1226.41 310.979C1224.99 312.466 1229.48 317.736 1228.92 319.268C1228.36 320.8 1223.43 320.528 1229 323.034Z" fill="white" fill-opacity="0.08"/>
<path d="M1248.66 335.462C1245.72 337.704 1247.3 334.751 1242.78 334.037C1238.26 333.326 1238.44 333.63 1240.72 337.195C1243.01 340.772 1243.22 339.204 1242 341.627C1240.78 344.058 1244.39 341.902 1247.27 340.978C1250.16 340.058 1249.24 338.419 1254.39 337.807C1259.54 337.195 1257.03 332.414 1254.35 331.503C1251.68 330.591 1247.71 330.287 1247.41 328.771C1247.1 327.256 1241.25 326.25 1239.87 326.956C1239.87 326.956 1244.65 328.673 1246.11 331.199C1247.58 333.737 1247.68 332.821 1249.64 332.312C1251.61 331.807 1251.6 333.228 1248.66 335.462Z" fill="white" fill-opacity="0.08"/>
<path d="M1234.43 328.67C1231.52 327.356 1229.2 328.267 1229.2 328.267C1229.2 328.267 1235.34 330.592 1235.49 332.416C1235.65 334.243 1237.36 329.984 1234.43 328.67Z" fill="white" fill-opacity="0.08"/>
<path d="M1221.17 344.434C1221.17 344.434 1226.38 342.039 1227.42 340.261C1228.46 338.486 1229.39 336.338 1228.06 334.695C1226.74 333.057 1226.98 338.499 1224.75 339.55C1222.52 340.602 1217.52 343.127 1219.53 344.434C1220.47 345.045 1221.17 344.434 1221.17 344.434Z" fill="white" fill-opacity="0.08"/>
<path d="M288.461 307.436V307.437H288.462L288.461 307.436Z" fill="white" fill-opacity="0.08"/>
<path d="M505.26 389.509C498.956 387.779 499.629 382.613 487.188 380.682C474.772 378.756 473.05 380.469 464.67 375.343C456.339 370.246 445.868 375.129 448.728 366.443C451.56 357.838 428.632 352.22 419.261 352.635C419.261 352.635 404.264 342.724 396.591 339.04C388.953 335.368 387.452 340.063 381.308 339.04C375.174 338.017 367.784 334.756 362.723 331.507C357.679 328.271 346.687 337.812 339.032 335.976C331.393 334.144 336.655 340.128 327.274 344.507C327.274 344.507 320.464 335.775 310.645 341.496C300.761 347.254 299.788 337.134 300.012 334.691C300.233 332.255 306.891 322.303 302.965 321.236C299.046 320.168 280.544 322.57 281.689 319.634C282.831 316.709 288.648 311.908 288.465 307.448C287.972 307.834 287.461 308.216 286.947 308.598C289.521 306.688 292.015 304.618 292.664 303.525C293.985 301.304 286.391 300.133 276.248 302.219C276.248 302.219 271.46 311.674 266.989 311.411C262.521 311.148 249.825 313.925 247.12 303.394C244.45 292.995 251.612 284.891 251.612 284.891C251.612 284.891 253.934 278.008 259.944 277.753C265.95 277.499 260.779 273.449 266.33 273.449C271.881 273.449 278.874 274.964 284.667 275.474C290.463 275.979 287.292 269.761 291.201 270.344C295.113 270.927 304.756 273.704 313.339 271.937C321.906 270.175 316.52 280.045 316.52 280.045C316.52 280.045 314.885 286.69 321.723 289.257C328.582 291.832 323.586 284.637 324.259 278.772C324.928 272.948 326.139 266.409 333.004 263.908C339.846 261.415 351.552 258.433 354.926 250.042C358.269 241.734 361.063 242.218 362.392 239.549C363.713 236.887 366.797 232.788 373.714 232.546C380.628 232.304 382.947 229.905 383.813 225.839C384.675 221.793 397.002 219.424 398.485 219.189C399.372 219.046 400.186 217.883 399.776 216.672C399.796 216.733 399.838 216.791 399.852 216.852L400.048 216.828C411.081 213.53 406.783 213.53 404.357 218.479C401.918 223.457 402.829 222.508 412.579 220.372C422.304 218.245 431.24 214.47 429.58 211.887C427.924 209.312 427.438 210.014 423.205 213.53C418.954 217.062 414.649 211.653 410.416 211.419C406.186 211.185 411.037 206.511 411.037 206.511C411.037 206.511 398.934 204.88 407.286 203.952C415.632 203.024 416.712 199.323 409.329 199.089C401.946 198.859 385.658 208.839 385.658 208.839C385.658 208.839 399.117 198.855 406.941 195.175C414.728 191.507 430.646 198.629 435.742 194.029C440.81 189.454 446.027 191.737 446.027 191.737L433.344 206.975C433.344 206.975 439.827 206.511 449.697 206.975C459.575 207.443 462.007 199.319 457.487 198.859C452.968 198.399 442.318 202.56 449.09 196.325C455.811 190.14 454.351 180.385 450.236 179.933C446.123 179.482 448.286 175.214 448.286 175.214C436.518 174.767 431.43 166.745 431.43 166.745C434.096 163.649 424.278 150.296 424.278 150.296C424.278 150.296 418.285 147.696 418.306 152.687C418.33 157.71 407.625 159.463 406.883 156.395C406.145 153.34 402.636 155.303 402.636 155.303L403.167 144.669C401.504 144.456 396.764 144.238 392.779 140.587C388.812 136.952 387.894 138.02 384.444 138.234C380.991 138.447 380.697 136.739 373.915 136.656C367.132 136.574 370.999 141.877 369.54 148.128C368.074 154.432 362.895 155.96 362.895 155.96C371.858 163.427 368.495 170.524 368.495 170.524C352.08 175.214 354.791 179.933 354.791 179.933C358.138 183.548 359.149 186.722 354.125 190.14C349.081 193.569 341.723 183.322 341.723 183.322L344.79 173.649C344.79 173.649 331.735 174.319 331.2 172.311C330.665 170.302 326.843 170.302 321.516 166.749C316.21 163.209 305.822 164.536 305.822 164.536C306.443 159.689 313.315 154.654 302.575 156.182C291.815 157.714 298.794 143.815 303.234 143.815C307.675 143.815 311.601 135.679 314.999 135.679C318.397 135.679 319.249 133.765 321.005 131.005C322.755 128.257 333.919 128.257 336.586 124.471C339.242 120.7 333.301 121.538 331.279 121.538C329.258 121.538 327.498 116.745 333.898 119.242C340.318 121.748 342.582 115.862 350.444 114.618C358.293 113.373 363.53 110.432 365.307 108.272C367.08 106.116 361.319 101.06 361.319 101.06C361.319 101.06 364.807 101.06 366.259 98.1643C367.705 95.2811 361.253 92.2542 357.361 91.9543C353.473 91.6545 351.072 93.3138 352.349 97.1006C353.632 100.908 347.719 97.7084 346.608 103.048C345.487 108.424 333.205 112.289 337.693 105.656C342.144 99.0761 335.206 93.3138 336.43 96.1888C337.662 99.0761 330.414 101.06 330.414 101.06C330.414 101.06 334.892 95.429 328.761 94.2174C322.641 93.0057 326.267 90.5949 325.639 87.4365C325.014 84.2945 323.893 77.604 322.296 77.1604C320.702 76.7168 316.403 78.9388 313.422 85.4897C310.417 92.0981 312.408 89.6913 316.52 92.7059C320.65 95.7329 319.901 98.4683 313.998 101.824C308.068 105.192 310.69 99.38 310.3 96.6447C309.91 93.9175 304.732 90.5948 300.05 94.8252C295.344 99.0761 299.153 99.6881 299.153 99.6881C299.153 99.6881 305.915 103.968 290.897 105.812C275.841 107.656 270.642 98.4723 269.148 98.4723C267.655 98.4723 270.518 102.132 259.375 104.276C248.2 106.424 232.199 104.888 232.199 104.888C232.199 104.888 242.873 98.1643 231.433 98.1643C219.989 98.1643 211.354 91.5025 205.199 92.1022C199.037 92.7059 192.641 100.908 191.617 95.429C190.599 89.9911 184.606 88.7877 181.418 89.3915C172.59 91.0589 172.738 88.7918 165.255 92.903C157.731 97.0389 148.336 103.352 143.113 97.5565C137.928 91.8024 134.474 93.0098 134.474 93.0098C128.885 91.2479 122.803 89.1902 115.634 89.794C108.458 90.3936 108.882 86.9888 101.634 87.7897C94.3748 88.5906 92.7015 84.7955 87.7715 84.7955C82.8414 84.7955 83.5107 80.2243 77.7665 80.6227C72.0188 81.017 63.0039 87.9909 54.6791 88.1922C46.3508 88.3934 46.7924 96.85 38.6538 97.2525C30.5084 97.6591 20.2136 102.132 27.7656 102.132C35.3177 102.132 36.7494 110.124 41.8175 110.744C46.889 111.365 45.4193 116.125 38.088 116.749C30.7499 117.373 35.3763 112.396 32.3196 113.225C29.2595 114.055 16.1771 115.505 15.6147 120.294C15.0489 125.111 24.5951 127.847 32.9406 125.111C41.2586 122.384 45.4089 131.227 37.0323 131.017C28.6557 130.804 27.5931 134.623 22.9839 135.051C18.3713 135.478 10.0671 140.176 12.5097 142.998C14.9627 145.828 11.3264 145.552 15.6768 150.235C18.3264 153.085 21.39 151.151 23.1495 149.38C22.256 151.2 21.8144 153.779 24.4571 155.102C28.3935 157.069 25.1436 156.634 34.1964 156.412C43.2492 156.194 39.3335 158.823 31.809 164.104C24.2363 169.423 0 176.796 0 176.796C38.3778 169.645 36.4596 164.544 46.5578 161.238C56.6145 157.944 54.0443 157.504 54.8343 154.88C55.3518 153.163 63.3903 149.692 68.8655 147.499C63.9147 150.37 63.6732 154.547 64.7841 155.751C66.1986 157.282 76.3658 150.304 81.9237 149.319C87.4748 148.333 79.3707 139.096 87.5265 144.895C95.7444 150.736 112.18 149.109 112.18 149.109C134.816 159.911 135.847 169.526 144.555 175.555C153.328 181.63 140.781 192.887 153.218 193.573C165.669 194.259 166.949 201.171 166.949 201.171C166.949 201.171 171.845 204.416 163.244 204.65C154.639 204.884 157.482 204.884 158.59 209.78C159.704 214.704 156.299 221.321 152.545 225.839C148.771 230.381 146.908 239.549 149.868 241.002C152.835 242.461 151.51 248.321 157.662 253.735C163.854 259.181 169.078 258.93 170.109 262.413C170.496 263.723 171.255 264.085 172.328 264.015H171.969C171.969 264.015 171.845 271.564 175.26 274.085C178.686 276.615 180.432 279.79 173.162 280.427C173.162 280.427 178.275 282.977 182.574 284.637C186.883 286.3 182.029 289.771 184.378 291.188C186.728 292.609 190.368 297.66 192.986 296.49C195.605 295.324 193.869 294.289 190.882 291.315C187.904 288.354 192.727 287.861 186.435 280.176C180.2 272.562 179.279 270.295 181.256 267.658C181.256 267.658 185.124 267.658 185.776 271.05C186.431 274.459 194.863 282.842 197.616 284.76C200.376 286.682 194.535 287.45 198.385 288.863C202.239 290.28 213.051 299.603 209.688 305.09C209.688 305.09 207 307.715 212.524 309.427C218.061 311.14 239.82 321.096 246.361 320.164C252.895 319.231 258.181 319.363 260.351 322.566C261.165 323.77 261.883 324.053 262.507 323.885L262.266 323.93C262.266 323.93 265.836 327.663 272.926 326.854C280.009 326.049 273.53 330.353 282.365 328.739C282.365 328.739 285.222 335.5 289.303 336.042C289.303 336.042 287.251 339.582 291.484 339.582C295.713 339.582 294.213 345.603 300.906 345.053C307.599 344.502 306.198 350.281 310.21 348.076C314.212 345.874 321.823 339.759 321.688 348.577C321.688 348.577 325.684 353.875 318.891 360.553C312.046 367.281 298.608 375.552 300.433 378.965C302.265 382.395 303.704 381.75 298.277 386.264C292.822 390.802 300.305 394.277 302.01 397.107C303.721 399.949 314.337 420.086 313.971 422.998C313.605 425.922 336.955 431.34 336.306 438.618C335.651 445.953 330.748 464.546 322.158 482.794C313.398 501.403 321.116 500.668 305.981 516.403C305.981 516.403 301.503 535.172 298.242 539.731C294.968 544.311 291.273 550.71 294.999 549.942C298.722 549.174 300.94 537.702 305.101 539.226C305.101 539.226 296.552 563.372 291.815 568.588C287.05 573.833 280.247 589.461 282.91 596.693C285.595 603.979 279.053 612.411 287.033 617.065C295.048 621.739 293.088 626.158 306.336 626.992C319.594 627.825 321.668 625.883 327.591 624.778C333.508 623.673 311.611 624.223 310.631 608.054C309.669 592.134 310.328 592.134 316.438 591.333C322.541 590.532 317.818 587.863 321.495 584.405C325.159 580.959 333.353 579.369 334.136 573.837C334.916 568.333 324.214 571.213 326.374 563.898C328.516 556.64 338.901 558.189 338.901 558.189L339.528 550.2C339.528 550.2 348.574 550.2 349.699 546.101C350.82 542.023 343.775 545.079 343.147 541.768C342.523 538.466 343.755 533.911 349.958 538.212C356.188 542.532 359.297 531.394 359.297 531.394C359.297 531.394 359.673 526.12 371.707 526.621C383.747 527.122 390.009 520.629 391.83 513.93C393.642 507.277 386.083 515.91 387.142 508.262C388.194 500.672 391.896 509.983 400.445 506.299C408.963 502.627 418.761 494.84 419.824 492.179C420.886 489.526 432.668 482.359 436.522 477.689C440.355 473.04 436.173 468.078 442.473 463.38C448.742 458.701 464.098 454.746 469.29 454.976C474.486 455.21 484.794 442.515 486.412 437.254C488.02 432.026 490.97 421.207 496.134 416.295C501.271 411.408 514.468 406.545 514.492 396.458C514.526 386.482 511.57 391.238 505.26 389.509ZM399.362 215.945C399.479 216.089 399.583 216.232 399.655 216.38C399.579 216.236 399.476 216.089 399.362 215.945ZM398.244 215.025C397.882 214.819 397.461 214.626 396.95 214.462C397.464 214.626 397.882 214.819 398.244 215.025ZM177.865 262.684C178.558 262.549 179.276 262.442 180.038 262.405C179.279 262.438 178.558 262.549 177.865 262.684ZM173.749 263.74C173.994 263.678 174.256 263.604 174.522 263.53C174.263 263.604 173.987 263.678 173.749 263.74ZM175.809 263.173C176.24 263.054 176.688 262.947 177.158 262.84C176.695 262.943 176.236 263.054 175.809 263.173ZM263.187 323.503C263.256 323.445 263.321 323.375 263.39 323.314C263.321 323.379 263.256 323.445 263.187 323.503ZM263.991 322.632C263.925 322.722 263.86 322.8 263.791 322.887C263.86 322.8 263.929 322.718 263.991 322.632ZM280.644 312.725C280.834 312.652 281.144 312.483 281.499 312.278C281.141 312.483 280.834 312.652 280.644 312.725ZM281.7 312.163C282.065 311.945 282.49 311.678 282.962 311.374C282.49 311.682 282.069 311.945 281.7 312.163ZM283.231 311.194C283.718 310.873 284.239 310.524 284.787 310.142C284.239 310.524 283.721 310.873 283.231 311.194ZM286.598 308.844C286.015 309.271 285.432 309.694 284.867 310.089C285.429 309.694 286.015 309.276 286.598 308.844Z" fill="white" fill-opacity="0.08"/>
<path d="M601.035 91.1867C600.135 90.1805 606.176 88.9812 604.071 82.7918C601.988 76.6557 605.914 73.3125 605.617 72.7251C605.32 72.1378 602.07 65.7019 606.279 65.3117C610.485 64.9257 610.274 63.5662 610.516 60.6666C610.757 57.7792 615.939 58.5473 615.715 56.8182C615.491 55.0932 611.817 52.8014 613.611 50.5137C615.401 48.2342 619.396 46.3409 615.418 44.0737C611.451 41.8148 613.973 42.1886 608.149 39.3752C602.346 36.57 616.115 34.3357 618.068 34.3357C620.021 34.3357 622.146 35.6377 622.429 31.9207C622.712 28.2202 618.306 31.9166 616.86 26.2857C615.425 20.6959 609.933 26.0105 610.626 21.6117C611.316 17.2376 611.861 14.5147 614.77 13.4304C617.675 12.3461 618.996 8.56747 619.924 4.2714C619.924 4.2714 625.917 2.66553 627.052 0H452.123C452.178 2.84214 450.474 5.16266 448.632 6.59194C446.786 8.02534 445.578 10.9004 445.578 10.9004C435.028 10.539 418.92 14.1491 417.519 20.5111C416.105 26.9305 437.233 30.2532 429.591 30.438C421.949 30.6228 420.956 30.8077 419.883 32.8489C418.803 34.8943 427.907 36.9437 427.907 36.9437C426.683 41.2521 437.957 43.8889 437.957 43.8889C439.51 39.3793 451.854 43.1332 461.052 43.511C470.253 43.8889 481.079 66.6753 476.78 72.1419C472.45 77.6496 472.595 78.0439 475.283 80.8121C477.981 83.5926 480.799 72.1419 482.573 77.0993C484.36 82.0894 493.526 88.3816 487.692 87.7819C481.865 87.1823 472.75 82.7958 474.896 85.5846C477.049 88.3816 484.232 90.7884 488.127 91.1909C492.026 91.5934 488.734 99.6803 482.99 100.288C477.239 100.9 476.825 103.344 474.972 111.147C473.099 119.029 486.961 140.16 488.465 143.598C489.976 147.048 500.892 142.74 499.757 145.754C498.619 148.781 506.978 150.223 506.978 150.223C506.978 150.223 513.395 150.954 515.382 141.668C517.349 132.492 517.397 134.575 522.127 132.258C526.843 129.95 519.902 126.291 526.46 122.758C532.987 119.243 541.136 118.618 546.974 114.877C552.78 111.156 561.25 107.246 560.315 103.763C559.38 100.296 572.504 104.991 580.908 100.908C589.271 96.8341 601.936 92.193 601.035 91.1867Z" fill="white" fill-opacity="0.08"/>
<path d="M1558.74 531.821C1550.89 526.322 1566.16 544.085 1550.3 551.461C1550.3 551.461 1539.98 552.644 1540.54 559.487C1541.1 566.374 1546.34 569.085 1550.92 568.785C1555.49 568.485 1556.99 573.012 1563.63 566.379C1570.22 559.787 1560.61 553.831 1565.95 551.461C1571.27 549.096 1576.89 539.69 1573.28 536.479C1569.69 533.271 1566.63 537.349 1558.74 531.821Z" fill="white" fill-opacity="0.08"/>
<path d="M1582.73 513.426C1581.17 515.705 1574.95 515.705 1572.24 512.005C1569.54 508.316 1566.98 505.77 1566.99 507.466C1566.99 509.167 1560.07 507.397 1559.66 504.078C1559.25 500.768 1547.75 494.816 1548.1 497.334C1548.45 499.856 1549.18 499.014 1558.37 506.054C1567.62 513.142 1568 516.564 1566.14 519.139C1564.28 521.722 1560.94 523.16 1568.99 525.747C1577.06 528.347 1574.84 534.557 1575.98 535.021C1591.73 541.449 1578.18 521.431 1583.09 522.581C1588 523.731 1590.13 519.422 1589.21 515.685C1588.28 511.956 1584.28 511.146 1582.73 513.426Z" fill="white" fill-opacity="0.08"/>
</svg>
