<svg width="99" height="22" viewBox="0 0 99 22" fill="none" xmlns="http://www.w3.org/2000/svg">
<path d="M2.47949 1V17H0.0654297V1H2.47949ZM8.14355 9.875V17H5.80762V5H8.0498V6.95312H8.19824C8.47428 6.31771 8.90658 5.80729 9.49512 5.42187C10.0889 5.03646 10.8363 4.84375 11.7373 4.84375C12.555 4.84375 13.2712 5.01563 13.8857 5.35938C14.5003 5.69792 14.9769 6.20312 15.3154 6.875C15.654 7.54687 15.8232 8.3776 15.8232 9.36719V17H13.4873V9.64844C13.4873 8.77865 13.2607 8.09896 12.8076 7.60937C12.3545 7.11458 11.7321 6.86719 10.9404 6.86719C10.3988 6.86719 9.91699 6.98437 9.49512 7.21875C9.07845 7.45312 8.74772 7.79687 8.50293 8.25C8.26335 8.69792 8.14355 9.23958 8.14355 9.875ZM24.5576 5V6.875H18.0029V5H24.5576ZM19.7607 2.125H22.0967V13.4766C22.0967 13.9297 22.1644 14.2708 22.2998 14.5C22.4352 14.724 22.6097 14.8776 22.8232 14.9609C23.042 15.0391 23.279 15.0781 23.5342 15.0781C23.7217 15.0781 23.8857 15.0651 24.0264 15.0391C24.167 15.013 24.2764 14.9922 24.3545 14.9766L24.7764 16.9062C24.641 16.9583 24.4482 17.0104 24.1982 17.0625C23.9482 17.1198 23.6357 17.151 23.2607 17.1563C22.6462 17.1667 22.0732 17.0573 21.542 16.8281C21.0107 16.599 20.5811 16.2448 20.2529 15.7656C19.9248 15.2865 19.7607 14.6849 19.7607 13.9609V2.125ZM32.1846 17.2422C31.0023 17.2422 29.984 16.9896 29.1299 16.4844C28.2809 15.974 27.6247 15.2578 27.1611 14.3359C26.7028 13.4089 26.4736 12.3229 26.4736 11.0781C26.4736 9.84896 26.7028 8.76562 27.1611 7.82812C27.6247 6.89062 28.2705 6.15885 29.0986 5.63281C29.932 5.10677 30.9059 4.84375 32.0205 4.84375C32.6976 4.84375 33.3538 4.95573 33.9893 5.17969C34.6247 5.40365 35.195 5.75521 35.7002 6.23437C36.2054 6.71354 36.6038 7.33594 36.8955 8.10156C37.1872 8.86198 37.333 9.78646 37.333 10.875V11.7031H27.7939V9.95312H35.0439C35.0439 9.33854 34.9189 8.79427 34.6689 8.32031C34.4189 7.84115 34.0674 7.46354 33.6143 7.1875C33.1663 6.91146 32.6403 6.77344 32.0361 6.77344C31.3799 6.77344 30.807 6.9349 30.3174 7.25781C29.833 7.57552 29.458 7.99219 29.1924 8.50781C28.932 9.01823 28.8018 9.57292 28.8018 10.1719V11.5391C28.8018 12.3411 28.9424 13.0234 29.2236 13.5859C29.5101 14.1484 29.9085 14.5781 30.4189 14.875C30.9294 15.1667 31.5257 15.3125 32.208 15.3125C32.6507 15.3125 33.0544 15.25 33.4189 15.125C33.7835 14.9948 34.0986 14.8021 34.3643 14.5469C34.6299 14.2917 34.833 13.9766 34.9736 13.6016L37.1846 14C37.0075 14.651 36.6898 15.2214 36.2314 15.7109C35.7783 16.1953 35.208 16.5729 34.5205 16.8437C33.8382 17.1094 33.0596 17.2422 32.1846 17.2422ZM39.9248 17V5H42.1826V6.90625H42.3076C42.5264 6.26042 42.9118 5.7526 43.4639 5.38281C44.0212 5.00781 44.6514 4.82031 45.3545 4.82031C45.5003 4.82031 45.6722 4.82552 45.8701 4.83594C46.0732 4.84635 46.2321 4.85937 46.3467 4.875V7.10937C46.2529 7.08333 46.0863 7.05469 45.8467 7.02344C45.6071 6.98698 45.3675 6.96875 45.1279 6.96875C44.5758 6.96875 44.0837 7.08594 43.6514 7.32031C43.2243 7.54948 42.8857 7.86979 42.6357 8.28125C42.3857 8.6875 42.2607 9.15104 42.2607 9.67187V17H39.9248ZM48.3682 21.5V5H50.6494V6.94531H50.8447C50.9801 6.69531 51.1755 6.40625 51.4307 6.07812C51.6859 5.75 52.04 5.46354 52.4932 5.21875C52.9463 4.96875 53.5452 4.84375 54.29 4.84375C55.2588 4.84375 56.1234 5.08854 56.8838 5.57813C57.6442 6.06771 58.2406 6.77344 58.6729 7.69531C59.1104 8.61719 59.3291 9.72656 59.3291 11.0234C59.3291 12.3203 59.113 13.4323 58.6807 14.3594C58.2484 15.2812 57.6546 15.9922 56.8994 16.4922C56.1442 16.987 55.2822 17.2344 54.3135 17.2344C53.5843 17.2344 52.988 17.112 52.5244 16.8672C52.0661 16.6224 51.7067 16.3359 51.4463 16.0078C51.1859 15.6797 50.9854 15.388 50.8447 15.1328H50.7041V21.5H48.3682ZM50.6572 11C50.6572 11.8437 50.7796 12.5833 51.0244 13.2188C51.2692 13.8542 51.6234 14.3516 52.0869 14.7109C52.5505 15.0651 53.1182 15.2422 53.79 15.2422C54.488 15.2422 55.0713 15.0573 55.54 14.6875C56.0088 14.3125 56.363 13.8047 56.6025 13.1641C56.8473 12.5234 56.9697 11.8021 56.9697 11C56.9697 10.2083 56.8499 9.4974 56.6104 8.86719C56.376 8.23698 56.0218 7.73958 55.5479 7.375C55.0791 7.01042 54.4932 6.82812 53.79 6.82812C53.113 6.82812 52.54 7.0026 52.0713 7.35156C51.6077 7.70052 51.2562 8.1875 51.0166 8.8125C50.777 9.4375 50.6572 10.1667 50.6572 11ZM61.9463 17V5H64.2041V6.90625H64.3291C64.5479 6.26042 64.9333 5.7526 65.4854 5.38281C66.0426 5.00781 66.6729 4.82031 67.376 4.82031C67.5218 4.82031 67.6937 4.82552 67.8916 4.83594C68.0947 4.84635 68.2536 4.85937 68.3682 4.875V7.10937C68.2744 7.08333 68.1077 7.05469 67.8682 7.02344C67.6286 6.98698 67.389 6.96875 67.1494 6.96875C66.5973 6.96875 66.1051 7.08594 65.6729 7.32031C65.2458 7.54948 64.9072 7.86979 64.6572 8.28125C64.4072 8.6875 64.2822 9.15104 64.2822 9.67187V17H61.9463ZM70.3896 17V5H72.7256V17H70.3896ZM71.5693 3.14844C71.1631 3.14844 70.8141 3.01302 70.5225 2.74219C70.236 2.46615 70.0928 2.13802 70.0928 1.75781C70.0928 1.3724 70.236 1.04427 70.5225 0.773437C70.8141 0.497395 71.1631 0.359375 71.5693 0.359375C71.9756 0.359375 72.3219 0.497395 72.6084 0.773437C72.9001 1.04427 73.0459 1.3724 73.0459 1.75781C73.0459 2.13802 72.9001 2.46615 72.6084 2.74219C72.3219 3.01302 71.9756 3.14844 71.5693 3.14844ZM80.9229 17.2422C79.7614 17.2422 78.7614 16.9792 77.9229 16.4531C77.0895 15.9219 76.4489 15.1901 76.001 14.2578C75.5531 13.3255 75.3291 12.2578 75.3291 11.0547C75.3291 9.83594 75.5583 8.76042 76.0166 7.82812C76.4749 6.89062 77.1208 6.15885 77.9541 5.63281C78.7874 5.10677 79.7692 4.84375 80.8994 4.84375C81.8109 4.84375 82.6234 5.01302 83.3369 5.35156C84.0505 5.6849 84.626 6.15365 85.0635 6.75781C85.5062 7.36198 85.7692 8.06771 85.8525 8.875H83.5791C83.4541 8.3125 83.1676 7.82812 82.7197 7.42187C82.277 7.01562 81.6833 6.8125 80.9385 6.8125C80.2874 6.8125 79.7171 6.98437 79.2275 7.32812C78.7432 7.66667 78.3656 8.15104 78.0947 8.78125C77.8239 9.40625 77.6885 10.1458 77.6885 11C77.6885 11.875 77.8213 12.6302 78.0869 13.2656C78.3525 13.901 78.7275 14.3932 79.2119 14.7422C79.7015 15.0911 80.277 15.2656 80.9385 15.2656C81.3812 15.2656 81.7822 15.1849 82.1416 15.0234C82.5062 14.8568 82.8109 14.6198 83.0557 14.3125C83.3057 14.0052 83.4801 13.6354 83.5791 13.2031H85.8525C85.7692 13.9792 85.5166 14.6719 85.0947 15.2812C84.6729 15.8906 84.1077 16.3698 83.3994 16.7187C82.6963 17.0677 81.8708 17.2422 80.9229 17.2422ZM93.5225 17.2422C92.3402 17.2422 91.3219 16.9896 90.4678 16.4844C89.6188 15.974 88.9626 15.2578 88.499 14.3359C88.0407 13.4089 87.8115 12.3229 87.8115 11.0781C87.8115 9.84896 88.0407 8.76562 88.499 7.82812C88.9626 6.89062 89.6084 6.15885 90.4365 5.63281C91.2699 5.10677 92.2438 4.84375 93.3584 4.84375C94.0355 4.84375 94.6917 4.95573 95.3271 5.17969C95.9626 5.40365 96.5329 5.75521 97.0381 6.23437C97.5433 6.71354 97.9417 7.33594 98.2334 8.10156C98.5251 8.86198 98.6709 9.78646 98.6709 10.875V11.7031H89.1318V9.95312H96.3818C96.3818 9.33854 96.2568 8.79427 96.0068 8.32031C95.7568 7.84115 95.4053 7.46354 94.9521 7.1875C94.5042 6.91146 93.9782 6.77344 93.374 6.77344C92.7178 6.77344 92.1449 6.9349 91.6553 7.25781C91.1709 7.57552 90.7959 7.99219 90.5303 8.50781C90.2699 9.01823 90.1396 9.57292 90.1396 10.1719V11.5391C90.1396 12.3411 90.2803 13.0234 90.5615 13.5859C90.848 14.1484 91.2464 14.5781 91.7568 14.875C92.2673 15.1667 92.8636 15.3125 93.5459 15.3125C93.9886 15.3125 94.3923 15.25 94.7568 15.125C95.1214 14.9948 95.4365 14.8021 95.7021 14.5469C95.9678 14.2917 96.1709 13.9766 96.3115 13.6016L98.5225 14C98.3454 14.651 98.0277 15.2214 97.5693 15.7109C97.1162 16.1953 96.5459 16.5729 95.8584 16.8437C95.1761 17.1094 94.3975 17.2422 93.5225 17.2422Z" fill="white"/>
</svg>
