<svg width="109" height="28" viewBox="0 0 109 28" fill="none" xmlns="http://www.w3.org/2000/svg">
<path d="M46.2462 0.000824236V3.3456H39.6299C39.5301 3.34782 39.4326 3.37516 39.3462 3.42511C39.2599 3.47505 39.1875 3.54599 39.1358 3.63134C38.9986 3.82899 38.928 4.0652 38.9341 4.30573V6.48124C38.928 6.72201 38.9986 6.95849 39.1358 7.15645C39.1887 7.24184 39.261 7.31352 39.3469 7.36561C39.4328 7.4177 39.5297 7.44874 39.6299 7.45618H46.2462V10.801H38.2671C37.9462 10.8007 37.6315 10.7124 37.3572 10.5457C37.0591 10.3661 36.7996 10.129 36.5939 9.84825C36.3617 9.53241 36.1831 9.18049 36.0653 8.80661C35.9321 8.389 35.866 7.95294 35.8693 7.51464V3.31514C35.8658 2.87774 35.9302 2.44245 36.0603 2.02482C36.1755 1.64948 36.3501 1.29503 36.5774 0.974943C36.7814 0.6886 37.041 0.446345 37.3407 0.262675C37.6194 0.091253 37.94 0.000334657 38.2671 0L46.2462 0.000824236Z" fill="white"/>
<path d="M56.1106 0.000824236C56.4377 0.00115889 56.7583 0.0920772 57.0369 0.263499C57.3367 0.447169 57.5963 0.689424 57.8002 0.975767C58.0285 1.29811 58.2034 1.65511 58.3182 2.03305C58.4464 2.44826 58.5106 2.88059 58.5084 3.31514V7.50064C58.5118 7.93771 58.4476 8.37267 58.3182 8.79014C58.2027 9.16552 58.0279 9.51997 57.8002 9.84001C57.5977 10.1256 57.3377 10.3657 57.0369 10.5449C56.7569 10.7123 56.4368 10.8005 56.1106 10.8001H49.7339C49.4077 10.8005 49.0875 10.7123 48.8075 10.5449C48.5067 10.3657 48.2467 10.1256 48.0442 9.84001C47.8163 9.52015 47.6414 9.16565 47.5263 8.79014C47.3968 8.37267 47.3327 7.93771 47.3361 7.50064V3.31514C47.3338 2.88031 47.398 2.4477 47.5263 2.03223C47.6407 1.65415 47.8156 1.2971 48.0442 0.974943C48.2482 0.6886 48.5078 0.446345 48.8075 0.262675C49.0861 0.091253 49.4068 0.000334657 49.7339 0L56.1106 0.000824236ZM55.446 4.30326C55.4518 4.06191 55.3789 3.82524 55.2385 3.62887C55.1852 3.5434 55.1114 3.47254 55.0239 3.42267C54.9364 3.37279 54.8378 3.34546 54.7371 3.34313H51.0967C50.997 3.3455 50.8995 3.3729 50.8131 3.42284C50.7268 3.47277 50.6544 3.54362 50.6026 3.62887C50.4658 3.82669 50.3952 4.06279 50.4009 4.30326V6.47876C50.3952 6.71949 50.4658 6.95585 50.6026 7.15398C50.6555 7.23933 50.7279 7.31097 50.8137 7.36305C50.8996 7.41514 50.9965 7.4462 51.0967 7.45371H54.7371C54.8382 7.44618 54.9362 7.41517 55.0232 7.36314C55.1103 7.31111 55.184 7.23949 55.2385 7.15398C55.379 6.95729 55.4518 6.72036 55.446 6.47876V4.30326Z" fill="white"/>
<path d="M70.8789 0.000732422V10.8009H67.0969L62.8241 3.82557V10.8009H59.7617V0.000732422H63.533L67.8149 6.97602V0.000732422H70.8789Z" fill="white"/>
<path d="M84.5046 0.000732422L79.9378 10.8009H76.2093L71.6426 0.000732422H75.0104L78.0703 7.53102L81.1335 0.000732422H84.5046Z" fill="white"/>
<path d="M93.552 0.000824236C93.8791 0.00115889 94.1997 0.0920773 94.4783 0.263499C94.7781 0.447169 95.0377 0.689424 95.2417 0.975767C95.4699 1.29811 95.6448 1.65511 95.7596 2.03305C95.8879 2.44852 95.952 2.88114 95.9498 3.31596V7.50147C95.9532 7.93853 95.889 8.37349 95.7596 8.79096C95.6441 9.16634 95.4693 9.52079 95.2417 9.84084C95.0391 10.1264 94.7791 10.3665 94.4783 10.5457C94.1983 10.7131 93.8782 10.8013 93.552 10.801H87.1753C86.8491 10.8013 86.5289 10.7131 86.249 10.5457C85.9482 10.3665 85.6882 10.1264 85.4856 9.84084C85.258 9.52079 85.0831 9.16634 84.9677 8.79096C84.8382 8.37349 84.7741 7.93853 84.7775 7.50147V3.31514C84.7752 2.88032 84.8394 2.4477 84.9677 2.03223C85.0825 1.65429 85.2573 1.29728 85.4856 0.974943C85.6896 0.6886 85.9492 0.446345 86.249 0.262675C86.5276 0.091253 86.8482 0.000334657 87.1753 0L93.552 0.000824236ZM92.8883 4.30326C92.894 4.06192 92.8212 3.82524 92.6808 3.62887C92.6274 3.5434 92.5537 3.47255 92.4661 3.42267C92.3786 3.37279 92.28 3.34546 92.1793 3.34313H88.5389C88.4392 3.34535 88.3416 3.37269 88.2552 3.42264C88.1689 3.47258 88.0965 3.54352 88.0449 3.62887C87.9077 3.82652 87.837 4.06273 87.8431 4.30326V6.47877C87.837 6.71954 87.9076 6.95602 88.0449 7.15398C88.0977 7.23937 88.17 7.31105 88.2559 7.36314C88.3418 7.41523 88.4388 7.44627 88.5389 7.45371H92.1793C92.2804 7.44618 92.3784 7.41517 92.4655 7.36314C92.5525 7.31111 92.6263 7.23949 92.6808 7.15398C92.8212 6.95729 92.894 6.72036 92.8883 6.47877V4.30326Z" fill="white"/>
<path d="M108.605 0.000732422L103.918 7.38115V10.8009H100.855V7.39597L96.168 0.000732422H99.7326L102.392 4.3361L105.04 0.000732422H108.605Z" fill="white"/>
<path d="M49.2578 20.287H49.7008L51.0957 16.9595H50.6527L49.2578 20.287Z" fill="white"/>
<path d="M49.9302 16.9595H49.25V18.5586L49.9302 16.9595Z" fill="white"/>
<path d="M61.8922 22.2624C62.0006 22.0825 62.0837 21.8886 62.1392 21.686C62.197 21.486 62.227 21.279 62.2281 21.0709V19.5253C62.2323 19.1691 62.1697 18.8152 62.0437 18.482C61.9289 18.1823 61.7575 17.9075 61.5389 17.6726C61.326 17.4478 61.0693 17.269 60.7846 17.1472C60.4943 17.0219 60.1811 16.958 59.8649 16.9595H51.7302L50.4127 20.2862H58.1151L58.0813 19.0008L60.0575 20.9424L58.125 23.0438L58.1077 21.7519H49.25V27.7629H52.8402V24.8348H57.9899C58.0806 24.834 58.1703 24.8538 58.2521 24.8927C58.334 24.9317 58.406 24.9887 58.4626 25.0596C58.5925 25.2156 58.6646 25.4116 58.6668 25.6146V27.7596H62.2314V24.6553C62.2378 24.2655 62.1243 23.8832 61.9062 23.5601C61.7091 23.2538 61.3989 23.038 61.0432 22.9598C61.2187 22.9176 61.381 22.8328 61.5158 22.7128C61.6642 22.5834 61.7912 22.4314 61.8922 22.2624Z" fill="white"/>
<path d="M49.9296 16.9595L48.9621 19.2313L48.5825 20.3018H43.5892V27.7563H39.9982V20.175H35.2832V16.9636L49.9296 16.9595Z" fill="white"/>
<path d="M70.3002 23.0949H72.2172L73.7627 26.4248H68.7283L68.1066 27.7596H64.2949L69.5888 16.9595H74.0995L79.3876 27.7596H75.5801L71.8359 19.8398L70.3002 23.0949Z" fill="white"/>
<path d="M93.3756 16.9595V27.7596H88.9389L83.93 20.7851V27.7596H80.3398V16.9595H84.7609L89.7838 23.9348V16.9595H93.3756Z" fill="white"/>
<path d="M105.554 20.9795C106.381 20.9795 106.981 21.2345 107.356 21.7444C107.73 22.2544 107.918 22.9195 107.918 23.7396V24.9847C107.918 25.3247 107.871 25.6631 107.777 25.9901C107.688 26.3103 107.544 26.6124 107.35 26.8827C107.158 27.1475 106.909 27.3655 106.621 27.52C106.29 27.6887 105.922 27.7711 105.551 27.7596H95.1278V24.7129H103.88C104.127 24.7129 104.285 24.6594 104.354 24.5548C104.421 24.4499 104.457 24.3273 104.456 24.2024C104.456 24.0848 104.42 23.9698 104.354 23.873C104.285 23.7737 104.127 23.7237 103.88 23.7232H97.2745C96.9598 23.7247 96.6476 23.6663 96.3547 23.5511C96.0732 23.4408 95.8167 23.275 95.6005 23.0636C95.3845 22.8492 95.2129 22.5943 95.0957 22.3134C94.9685 22.0044 94.9054 21.6727 94.9104 21.3385V19.6002C94.907 19.2394 94.9698 18.8811 95.0957 18.5429C95.2096 18.2335 95.3809 17.9483 95.6005 17.7022C95.8111 17.4692 96.068 17.2827 96.3547 17.1546C96.644 17.025 96.9575 16.9584 97.2745 16.9595H107.458V20.0062H98.9485C98.7015 20.0062 98.5434 20.0531 98.4759 20.1486C98.4066 20.247 98.3708 20.3651 98.3738 20.4854C98.3736 20.6056 98.4091 20.7231 98.4759 20.823C98.5434 20.9284 98.7015 20.9803 98.9485 20.9803L105.554 20.9795Z" fill="white"/>
<path d="M24.6124 0.39209H8.18327L0 14.1961L8.18327 28.0001H24.6783L32.8393 13.8906L24.6124 0.39209ZM22.9828 25.2375H9.89024L3.39089 14.2776L9.89024 3.31527H22.9828L28.5821 12.4348H15.4072L17.0689 15.1266H28.5821L22.9828 25.2375Z" fill="#1F03C7"/>
<path d="M21.4638 11.4934H25.3043L21.7347 5.52026H11.9746L13.8965 9.10466H20.0862L21.4638 11.4934Z" fill="#1F03C7"/>
<path d="M21.4638 16.4546H25.3043L21.7347 22.6254H11.9746L13.8965 18.9224H20.0862L21.4638 16.4546Z" fill="#1F03C7"/>
<path d="M10.9895 5.80029L6.25391 14.2561L11.1023 22.1479L13.0184 18.5396L10.0878 14.0634L12.8496 9.21507L10.9895 5.80029Z" fill="#1F03C7"/>
</svg>
